<svg xmlns="http://www.w3.org/2000/svg" viewBox="0 0 512.37 177.87">
<defs>
<style>
    #THIS .cls-1{ 
        fill:#976a47;
        stroke:#976a47;
        stroke-dasharray: 2000;
        stroke-dashoffset: 0;
        stroke-width: 1;
        -webkit-animation: brown1   ease-in ;
        animation: brown1 ease-in ;
        animation-duration:4s;
        
    }
    #THIS .cls-2{ 
        fill:#c9bc9c;
        stroke:#c9bc9c;
        stroke-dasharray: 2000;
        stroke-dashoffset: 0;
        stroke-width: 1;
        -webkit-animation: beige1  ease-in ;
        animation: beige1  ease-in ;
        animation-duration:4s;
    }
    #Tokyotech .cls-1{ 
        fill:#976a47;
        stroke:#976a47;
        stroke-dasharray: 2000;
        stroke-dashoffset: 0;
        stroke-width: 1;
        -webkit-animation: brown2 5s ease-in ;
        animation: brown2 5s ease-in ;
        animation-delay:1.5s;
        animation-fill-mode:both;
    }

    #Tokyotech .cls-2{ 
        fill:#c9bc9c;
        stroke:#c9bc9c;
        stroke-dasharray: 2000;
        stroke-dashoffset: 0;
        stroke-width: 1;
        -webkit-animation: beige2 5s ease-in ;
        animation: beige2 5s ease-in-out ;
        animation-delay:1.5s;
        animation-fill-mode:both;
    }

    #Produced .cls-1{
        fill:#976a47;
        stroke-dasharray: 2000;
        stroke-dashoffset: 0;
        stroke-width: 1;
        -webkit-animation: beige3 2s ease-in;
        animation: beige3 2s ease-in;
        animation-delay:1.7s;
        animation-fill-mode:both;     
    }   
    #Produced .cls-2{
        fill:#c9bc9c;
        stroke-dasharray: 2000;
        stroke-dashoffset: 0;
        stroke-width: 1;
        -webkit-animation: brown3 2s ease-in;
        animation: brown3 2s ease-in;
        animation-delay:1.7s;
        animation-fill-mode:both;     
    }   

@keyframes brown1 {
    0% {
        stroke-dashoffset: 2000;
        fill:transparent;
        
    }
    10% {
        stroke-dashoffset: 2000;
        fill:transparent;
    }
    40% {
        fill:transparent;
    }
    84% {
        fill:transparent;
    }
    90%{
        stroke-dashoffset: 0;
        fill:#976a47;
    }
    100% {
        stroke-dashoffset: 0;
        fill:#976a47;
    }
    }
    @keyframes beige1 {
    0% {
        stroke-dashoffset: 2000;
        fill:transparent;
    }
    10% {
        stroke-dashoffset: 2000;
        fill:transparent;
    }
    40% {
        fill:transparent;
    }
    84% {
        fill:transparent;
    }
    90% {
        stroke-dashoffset: 0;
        fill:#c9bc9c;
    }
    100% {
        stroke-dashoffset: 0;
        fill:#c9bc9c;
    }
    }
    @keyframes brown2 {
    0% {
        stroke-dashoffset: 2000;
        fill:transparent;
        
    }
    1% {
        stroke-dashoffset: 2000;
        fill:transparent;
    }
    36% {
        fill:transparent;
    }
    42% {
        stroke-dashoffset: 0;
        fill:#976a47;
    }
    100% {
        stroke-dashoffset: 0;
        fill:#976a47;
    }
    }
    @keyframes beige2 {
    0% {
        stroke-dashoffset: 2000;
        fill:transparent;
    }
    1% {
        stroke-dashoffset: 2000;
        fill:transparent;
    }
    36% {
        fill:transparent;
    }
    42% {
        stroke-dashoffset: 0;
        fill:#c9bc9c;
    }    
    100% {
        stroke-dashoffset: 0;
        fill:#c9bc9c;
    }
    }
    @keyframes brown3 {
    0% {
    fill:transparent;
    }
    40% {
    fill:transparent;
    }
    84% {
    fill:transparent;
    }
    90% {
    fill:#976a47;
    }
    100% {
    fill:#976a47;
    }
    }
    @keyframes beige3 {
    0% {
    fill:transparent;
    }
    40% {
    fill:transparent;
    }
    84% {
    fill:transparent;
    }
    90% {
    fill:#c9bc9c;
    }
    100% {
    fill:#c9bc9c;
    }
    }
</style>
</defs>
    <g id="layer_2" data-name="layer-2">
        <g id="Tokyotech">
        　　 <!--Tokyo tech hitotsubashi incubation square-->
            <path class="cls-1" d="M340.82,59.21l-2.48,0-6.58,0c0,2.52-.05,4.44-.06,5.74s0,3.09,0,5.34,0,4.37,0,6.6,0,3.72.05,4.46h-3.05c0-.74.05-2.25.07-4.52s0-4.51,0-6.69V65c0-1.27,0-3.21-.06-5.83q-3.93,0-6.37,0l-2.69,0V56.66l4.62,0,5.81,0,7.46,0,3.24,0Z"/>
            <path class="cls-2" d="M359.53,72a11.13,11.13,0,0,1-.76,4.1,9.25,9.25,0,0,1-2.21,3.34,8.35,8.35,0,0,1-6.07,2.38,9.1,9.1,0,0,1-3.32-.6,8.42,8.42,0,0,1-2.77-1.76,9.19,9.19,0,0,1-2.16-3.32,11.27,11.27,0,0,1-.77-4.17,11.41,11.41,0,0,1,.65-3.91,9.18,9.18,0,0,1,2-3.2,8.63,8.63,0,0,1,2.88-2,8.88,8.88,0,0,1,3.47-.69,9.22,9.22,0,0,1,3.48.63,8.15,8.15,0,0,1,2.77,1.91A9.64,9.64,0,0,1,358.85,68,11.37,11.37,0,0,1,359.53,72Zm-2.95.13a10.45,10.45,0,0,0-.56-3.37A6.8,6.8,0,0,0,354.27,66a4.84,4.84,0,0,0-1.7-1.08,5.79,5.79,0,0,0-2.06-.38,5.52,5.52,0,0,0-2.21.41,5.35,5.35,0,0,0-1.77,1.27A6.87,6.87,0,0,0,345,68.73a9.43,9.43,0,0,0-.56,3.21A10.17,10.17,0,0,0,345,75.4a6.64,6.64,0,0,0,1.85,2.72,4.87,4.87,0,0,0,1.66,1,5.89,5.89,0,0,0,4.16-.06,5,5,0,0,0,1.76-1.18A7.19,7.19,0,0,0,356,75.28,9.17,9.17,0,0,0,356.58,72.1Z"/>
            <path class="cls-2" d="M365.73,81.31h-2.92c0-.22,0-1.88.05-5s0-6.27,0-9.52V61.55q0-3.18-.07-7.29h2.92q-.06,3.27-.07,7.58c0,2.88,0,4.59,0,5.13,0,1.27,0,3.92,0,8S365.73,81.1,365.73,81.31Zm13.21-.37-1.76,1.61q-4.08-4.15-7.28-7.24l-3.53-3.39v0q.45-.41,3.88-3.92t5.56-5.76L377.59,64c-1.47,1.41-3,2.91-4.61,4.47l-3,2.95v0Q375.37,77.15,378.94,80.94Z"/>
            <path class="cls-2" d="M398.13,63.39q-3.58,7.94-7.57,16.86l-4.23,9.49-2.55-.94,3.81-7.92c-.1-.24-.87-2-2.31-5.38s-3.2-7.34-5.28-12l2.76-1.2q2,5.13,4.13,10.13l2.21,5.27h0q.11-.18,2.1-4.91t4.36-10.42Z"/>
            <path class="cls-2" d="M417.26,72a11.13,11.13,0,0,1-.76,4.1,9.25,9.25,0,0,1-2.21,3.34,8.35,8.35,0,0,1-6.07,2.38,9.14,9.14,0,0,1-3.32-.6,8.38,8.38,0,0,1-2.76-1.76A9.08,9.08,0,0,1,400,76.11a11.47,11.47,0,0,1-.77-4.17,11.18,11.18,0,0,1,.66-3.91,8.9,8.9,0,0,1,2-3.2,8.49,8.49,0,0,1,2.87-2,8.88,8.88,0,0,1,3.47-.69,9.22,9.22,0,0,1,3.48.63,8.28,8.28,0,0,1,2.78,1.91A9.61,9.61,0,0,1,416.58,68,11.14,11.14,0,0,1,417.26,72Zm-2.95.13a10.45,10.45,0,0,0-.56-3.37A6.89,6.89,0,0,0,412,66a4.89,4.89,0,0,0-1.71-1.08,5.75,5.75,0,0,0-2.06-.38,5.55,5.55,0,0,0-2.21.41,5.35,5.35,0,0,0-1.77,1.27,6.85,6.85,0,0,0-1.54,2.55,9.2,9.2,0,0,0-.57,3.21,9.93,9.93,0,0,0,.58,3.46,6.62,6.62,0,0,0,1.84,2.72,4.87,4.87,0,0,0,1.66,1,5.89,5.89,0,0,0,4.16-.06,5,5,0,0,0,1.76-1.18,7.19,7.19,0,0,0,1.61-2.58A9.17,9.17,0,0,0,414.31,72.1Z"/>
            <path class="cls-2" d="M442.21,59.21l-2.47,0-6.58,0c0,2.52-.05,4.44-.06,5.74s0,3.09,0,5.34,0,4.37,0,6.6,0,3.72.05,4.46h-3.05c0-.74.05-2.25.07-4.52s0-4.51,0-6.69V65c0-1.27,0-3.21-.05-5.83q-3.93,0-6.38,0l-2.68,0V56.66l4.62,0,5.8,0,7.47,0,3.23,0Z"/>
            <path class="cls-2" d="M457.79,71.29H444.45a8.1,8.1,0,0,0,.83,3.59,6.7,6.7,0,0,0,2.49,2.7,8.06,8.06,0,0,0,2.43,1,14.16,14.16,0,0,0,3.29.34c.7,0,1.34,0,1.93-.06l1.07-.07-.33,2.45c-.1,0-.42,0-1,.07s-1.2,0-1.95,0a15.59,15.59,0,0,1-5.14-.76,9.75,9.75,0,0,1-3.59-2.12,9.48,9.48,0,0,1-2-2.87,8.92,8.92,0,0,1-.84-3.9,10.9,10.9,0,0,1,.63-3.8,10.41,10.41,0,0,1,1.88-3.15,7.32,7.32,0,0,1,2.71-1.94,8.57,8.57,0,0,1,3.35-.68,8.25,8.25,0,0,1,3,.52,6.22,6.22,0,0,1,2.31,1.56,8.12,8.12,0,0,1,1.66,2.91A13.84,13.84,0,0,1,457.79,71.29Zm-2.86-2.07a6.11,6.11,0,0,0-1.56-3.58,4.43,4.43,0,0,0-3.33-1.3,4.79,4.79,0,0,0-3.45,1.32,6.94,6.94,0,0,0-1.92,3.56Z"/>
            <path class="cls-2" d="M473.72,78.91l-.23,2.47h-1a20.91,20.91,0,0,1-4.45-.45,14.29,14.29,0,0,1-3.71-1.34,9.12,9.12,0,0,1-3.48-3.23,8.25,8.25,0,0,1-1.26-4.48,7.57,7.57,0,0,1,1.15-4.07,9.51,9.51,0,0,1,3-3,12.81,12.81,0,0,1,4-1.63,19.94,19.94,0,0,1,4.79-.57h.76l.14,2.48h-.57a21.69,21.69,0,0,0-3.49.24,13.2,13.2,0,0,0-2.82.82,6.22,6.22,0,0,0-2.89,2.33,5.92,5.92,0,0,0-1.07,3.39,6.28,6.28,0,0,0,1,3.63,6.61,6.61,0,0,0,2.67,2.26,10.55,10.55,0,0,0,2.91.9,19.85,19.85,0,0,0,3.43.28h1.17Z"/>
            <path class="cls-2" d="M492.41,81.31h-2.92c0-.37,0-1.48.05-3.33s0-3.07,0-3.66,0-1.59,0-2.83,0-2.17,0-2.75a5.1,5.1,0,0,0-.81-3,3.25,3.25,0,0,0-2.62-.92,8,8,0,0,0-2.7.63,23,23,0,0,0-3.46,1.71L480,81.31h-2.92c0-.48,0-2.41.05-5.8s0-6.18,0-8.37c0-1.43,0-3.23,0-5.4s0-4.66-.07-7.48H480l-.07,10.5v0a27.12,27.12,0,0,1,4.32-2.05,9.22,9.22,0,0,1,2.88-.57,5,5,0,0,1,3.79,1.48,5.64,5.64,0,0,1,1.43,4.07c0,1.55,0,2.89,0,4s0,2,0,2.74c0,1.12,0,2.41,0,3.86S492.4,80.77,492.41,81.31Z"/>
            <path class="cls-1" d="M340.36,110.7h-3c0-.74,0-2.1.05-4.09s0-4.46,0-7.42h-15c0,3.42,0,6,0,7.76s0,3,.05,3.75h-3.05q0-1.11.06-3.93t0-9.54c0-1.35,0-3,0-5s0-4-.07-6.29h3.05c0,1.87,0,3.71,0,5.51s0,3.52,0,5.14h15q0-2.43,0-5.13c0-1.8,0-3.63,0-5.52h3q0,2.79-.06,6.44c0,2.44,0,4.42,0,6q0,5.43,0,8.31C340.33,108.63,340.35,110,340.36,110.7Z"/>
            <path class="cls-2" d="M348.23,88.45H345V85.27h3.25Zm-.17,22.25h-2.92c0-.2,0-1.41.05-3.64s0-4.06,0-5.51c0-1.27,0-2.66,0-4.18s0-3.3-.07-5.34h2.92c0,1.77-.05,3.43-.06,5s0,2.92,0,4.12q0,4.3,0,6.9C348,109.76,348.06,110.65,348.06,110.7Z"/>
            <path class="cls-2" d="M363.67,108.41l-.33,2.34a4.91,4.91,0,0,1-.64,0l-.87,0a8.89,8.89,0,0,1-5.72-1.58,5.87,5.87,0,0,1-1.94-4.84c0-1.37,0-2.83,0-4.39s0-3.5,0-5.81h-3.09V92h3.26V87.65h2.68V92h6.6v2.16h-6.6c0,.25,0,1,0,2.3s0,2.23,0,2.84v4.58a4.24,4.24,0,0,0,1.29,3.46,6.26,6.26,0,0,0,4,1.06h1.38Z"/>
            <path class="cls-2" d="M384.85,101.36a11.13,11.13,0,0,1-.76,4.1,9.33,9.33,0,0,1-2.21,3.34,8.76,8.76,0,0,1-2.7,1.77,8.92,8.92,0,0,1-3.37.61,9.14,9.14,0,0,1-3.32-.6,8.53,8.53,0,0,1-2.77-1.76,9.14,9.14,0,0,1-2.16-3.33,11.38,11.38,0,0,1-.77-4.16,11.18,11.18,0,0,1,.66-3.91,9,9,0,0,1,2-3.2,8.63,8.63,0,0,1,2.88-2,8.88,8.88,0,0,1,3.47-.69,9.22,9.22,0,0,1,3.48.63,8.14,8.14,0,0,1,2.78,1.91,9.61,9.61,0,0,1,2.08,3.28A11.14,11.14,0,0,1,384.85,101.36Zm-3,.13a10.55,10.55,0,0,0-.56-3.38,6.92,6.92,0,0,0-1.74-2.76,4.89,4.89,0,0,0-1.71-1.08,5.79,5.79,0,0,0-2.06-.38,5.52,5.52,0,0,0-2.21.41,5.35,5.35,0,0,0-1.77,1.27,6.76,6.76,0,0,0-1.54,2.54,9.3,9.3,0,0,0-.57,3.22,9.84,9.84,0,0,0,.58,3.45,6.65,6.65,0,0,0,1.84,2.73,4.87,4.87,0,0,0,1.66,1,6,6,0,0,0,4.16-.06,5.15,5.15,0,0,0,1.76-1.18,7.23,7.23,0,0,0,1.61-2.59A9.07,9.07,0,0,0,381.9,101.49Z"/>
            <path class="cls-2" d="M399.83,108.41l-.33,2.34a4.91,4.91,0,0,1-.64,0l-.88,0a8.91,8.91,0,0,1-5.72-1.58,5.87,5.87,0,0,1-1.93-4.84c0-1.37,0-2.83,0-4.39s0-3.5,0-5.81h-3.1V92h3.27V87.65h2.67V92h6.61v2.16h-6.61c0,.25,0,1,0,2.3s0,2.23,0,2.84v4.58a4.24,4.24,0,0,0,1.29,3.46,6.25,6.25,0,0,0,4,1.06h1.39Z"/>
            <path class="cls-2" d="M414.7,105.29a4.5,4.5,0,0,1-.67,2.44,5.3,5.3,0,0,1-1.73,1.73,8.82,8.82,0,0,1-2.67,1.06,15.06,15.06,0,0,1-3.41.36c-.61,0-1.23,0-1.88-.08l-1.1-.1-.11-2.42,1.28.1c.75.06,1.49.09,2.23.09.43,0,1,0,1.66-.11A5.9,5.9,0,0,0,410,108a3.26,3.26,0,0,0,1.36-1,2.25,2.25,0,0,0,.44-1.42,1.89,1.89,0,0,0-.38-1.22,4.78,4.78,0,0,0-1.07-.92,14.5,14.5,0,0,0-2-1.06,17.08,17.08,0,0,1-2.15-1.08,5.54,5.54,0,0,1-1.89-1.79,4.37,4.37,0,0,1-.66-2.4,4.22,4.22,0,0,1,.75-2.45,5.49,5.49,0,0,1,2-1.75,7.18,7.18,0,0,1,2.42-.79,17.46,17.46,0,0,1,2.56-.19c.75,0,1.36,0,1.84,0l.84,0,.2,2.46-1.14-.08c-.67,0-1.41-.07-2.21-.07a8.49,8.49,0,0,0-1.62.15,5.09,5.09,0,0,0-1.3.42,2.74,2.74,0,0,0-1.14,1,2.13,2.13,0,0,0-.34,1.11,1.84,1.84,0,0,0,.48,1.27,4.31,4.31,0,0,0,1.13.9c.5.3,1.2.65,2.07,1.06a18.3,18.3,0,0,1,1.9,1,6.45,6.45,0,0,1,2,1.81A4.1,4.1,0,0,1,414.7,105.29Z"/>
            <path class="cls-2" d="M434.08,110.7h-2.82v-2.14l0,0a23.79,23.79,0,0,1-3.22,1.74,8.9,8.9,0,0,1-3.79.9,5.22,5.22,0,0,1-4-1.52,5.89,5.89,0,0,1-1.44-4.24q0-1.47,0-3.51c0-1.36,0-2.35,0-3,0-1.12,0-2.5,0-4.15s-.05-2.56-.05-2.77h2.92c0,.16,0,1,0,2.65s0,2.9,0,3.86,0,1.91,0,3.17,0,2.17,0,2.7a5.73,5.73,0,0,0,.76,3.19,2.63,2.63,0,0,0,2.32,1,8.89,8.89,0,0,0,3.61-.88,17.45,17.45,0,0,0,2.88-1.55c0-.15,0-.83,0-2s0-2.72,0-4.53c0-1.29,0-2.84,0-4.64s-.05-2.78-.05-2.94h2.91q0,.31,0,2.07t0,6c0,1.58,0,3,0,4.18S434.06,107.62,434.08,110.7Z"/>
            <path class="cls-2" d="M454.21,101.21a8.79,8.79,0,0,1-5.5,8.44,15.51,15.51,0,0,1-3.75,1,33.21,33.21,0,0,1-5,.32h-1.64c0-.94,0-2.7,0-5.27s0-5.66,0-9.27c0-2.22,0-4.36,0-6.44s0-4.2-.05-6.36h2.91l-.05,8.51a24.18,24.18,0,0,1,6.06.67A12,12,0,0,1,451,94.55a7.63,7.63,0,0,1,2.4,2.81A8.68,8.68,0,0,1,454.21,101.21Zm-2.95.07A5.65,5.65,0,0,0,450,97.54a7.12,7.12,0,0,0-3.25-2.19,13.34,13.34,0,0,0-2.24-.55,15.35,15.35,0,0,0-2.47-.19h-.9c0,.27,0,1.25,0,2.94s0,3.08,0,4.17c0,2,0,3.5,0,4.35s0,1.71,0,2.58a21.08,21.08,0,0,0,3.7-.3,10.18,10.18,0,0,0,2.9-.95,6.35,6.35,0,0,0,2.64-2.48A7.29,7.29,0,0,0,451.26,101.28Z"/>
            <path class="cls-2" d="M471.07,100.18q0,4.57,0,7.46c0,1.91,0,3,0,3.1l-1.72.13c-1,.08-2.33.12-3.94.12a17.55,17.55,0,0,1-3.05-.27,10.83,10.83,0,0,1-2.64-.8,6.26,6.26,0,0,1-2.39-1.86,4.85,4.85,0,0,1,.17-5.88,7.7,7.7,0,0,1,3-2.07,17.87,17.87,0,0,1,3.2-.9,41.93,41.93,0,0,1,4.57-.6,5.06,5.06,0,0,0-.72-2.36,3.85,3.85,0,0,0-1.79-1.4,7.49,7.49,0,0,0-1.81-.47,17.56,17.56,0,0,0-2.33-.14c-.55,0-1,0-1.41,0l-1.57.09.29-2.45,1.1-.07c.55,0,1.29,0,2.24,0a15.21,15.21,0,0,1,3.88.45A6.84,6.84,0,0,1,469,93.72a6,6,0,0,1,1.58,2.38A11.93,11.93,0,0,1,471.07,100.18Zm-2.83,4.45V103c0-.64,0-1.38,0-2.21-.55,0-1.49.13-2.85.32A15.37,15.37,0,0,0,462,102a5.33,5.33,0,0,0-1.83,1.16,2.56,2.56,0,0,0-.81,1.92,2.9,2.9,0,0,0,.69,2,4.25,4.25,0,0,0,1.86,1.17,10.31,10.31,0,0,0,2,.46,19,19,0,0,0,2.32.13h.9l1.13,0v-1.22C468.24,106.84,468.24,105.86,468.24,104.63Z"/>
            <path class="cls-2" d="M485.25,105.29a4.58,4.58,0,0,1-.66,2.44,5.42,5.42,0,0,1-1.74,1.73,8.72,8.72,0,0,1-2.67,1.06,15.06,15.06,0,0,1-3.41.36c-.61,0-1.23,0-1.88-.08l-1.1-.1-.11-2.42,1.28.1c.75.06,1.49.09,2.23.09.43,0,1,0,1.66-.11a5.9,5.9,0,0,0,1.68-.41,3.26,3.26,0,0,0,1.36-1,2.25,2.25,0,0,0,.45-1.42,1.84,1.84,0,0,0-.39-1.22,4.78,4.78,0,0,0-1.07-.92,14,14,0,0,0-2-1.06,17.8,17.8,0,0,1-2.15-1.08,5.54,5.54,0,0,1-1.89-1.79,4.37,4.37,0,0,1-.66-2.4,4.22,4.22,0,0,1,.75-2.45,5.44,5.44,0,0,1,2-1.75,7.05,7.05,0,0,1,2.41-.79,17.46,17.46,0,0,1,2.56-.19c.75,0,1.36,0,1.85,0l.83,0,.2,2.46-1.14-.08c-.67,0-1.41-.07-2.21-.07a8.56,8.56,0,0,0-1.62.15,5.09,5.09,0,0,0-1.3.42,2.74,2.74,0,0,0-1.14,1,2.23,2.23,0,0,0-.34,1.11,1.84,1.84,0,0,0,.48,1.27,4.31,4.31,0,0,0,1.13.9c.51.3,1.2.65,2.07,1.06a19.87,19.87,0,0,1,1.91,1,6.4,6.4,0,0,1,2,1.81A4,4,0,0,1,485.25,105.29Z"/>
            <path class="cls-2" d="M504.44,110.7h-2.91c0-.37,0-1.48.05-3.33s0-3.07,0-3.66,0-1.59,0-2.84,0-2.16,0-2.74a5,5,0,0,0-.82-3,3.19,3.19,0,0,0-2.62-.92,7.93,7.93,0,0,0-2.69.63A23.56,23.56,0,0,0,492,96.51l.08,14.19h-2.92c0-.48,0-2.42.05-5.8s0-6.18,0-8.37v-5.4q0-3.25-.07-7.48h2.92L492,94.15l0,0a27.12,27.12,0,0,1,4.32-2,9.22,9.22,0,0,1,2.88-.57A5,5,0,0,1,503,93a5.64,5.64,0,0,1,1.43,4.07c0,1.55,0,2.89,0,4s0,2,0,2.74c0,1.12,0,2.41,0,3.86S504.43,110.16,504.44,110.7Z"/>
            <path class="cls-2" d="M512.37,88.45h-3.25V85.27h3.25Zm-.17,22.25h-2.91c0-.2,0-1.41,0-3.64s0-4.06,0-5.51c0-1.27,0-2.66,0-4.18s0-3.3-.06-5.34h2.91c0,1.77,0,3.43-.06,5s0,2.92,0,4.12c0,2.87,0,5.17,0,6.9S512.2,110.65,512.2,110.7Z"/>
            <path class="cls-1" d="M330.86,140.09h-3.05c0-.74,0-2.06.06-4s0-4.61,0-8.16c0-1.4,0-3.24,0-5.51s0-4.64-.07-7.09h3.05q0,2.64-.07,6.14c0,2.33,0,4.23,0,5.71,0,3.74,0,6.63,0,8.68S330.84,139.35,330.86,140.09Z"/>
            <path class="cls-2" d="M356.37,140.09h-2.91c0-.35,0-1.49,0-3.42s0-3.12,0-3.58c0-.64,0-1.58,0-2.83s0-2.16,0-2.74a5,5,0,0,0-.82-3,3.19,3.19,0,0,0-2.62-.93,7.84,7.84,0,0,0-2.78.67,22.11,22.11,0,0,0-3.36,1.7c0,.13,0,.86,0,2.19s0,2.54,0,3.64c0,1.42,0,3.15.05,5.16s.05,3.08.05,3.18h-2.92c0-.09,0-.84,0-2.26s0-3.54,0-6.34V127c0-1.73,0-3.58-.07-5.54h2.88l0,2.13,0,0a25.25,25.25,0,0,1,4.31-2,9.24,9.24,0,0,1,2.87-.58,5,5,0,0,1,3.79,1.48,5.64,5.64,0,0,1,1.43,4.07c0,1.55,0,2.89,0,4s0,2,0,2.74c0,1.12,0,2.52.05,4.2S356.37,140,356.37,140.09Z"/>
            <path class="cls-2" d="M372.9,137.69l-.22,2.47h-1a20.91,20.91,0,0,1-4.45-.45,14.15,14.15,0,0,1-3.71-1.34,9.13,9.13,0,0,1-3.48-3.23,8.25,8.25,0,0,1-1.26-4.48,7.55,7.55,0,0,1,1.15-4.07,9.41,9.41,0,0,1,3-3,13.22,13.22,0,0,1,4-1.63,20.46,20.46,0,0,1,4.79-.56h.75l.15,2.47H372a20.62,20.62,0,0,0-3.5.25,13.29,13.29,0,0,0-2.81.82,6.23,6.23,0,0,0-2.9,2.33,6,6,0,0,0-1.07,3.39,6.28,6.28,0,0,0,1,3.63,6.73,6.73,0,0,0,2.66,2.26,11.09,11.09,0,0,0,2.92.9,19.85,19.85,0,0,0,3.43.28h1.16Z"/>
            <path class="cls-2" d="M391.71,140.09h-2.82V138l0,0a26.24,26.24,0,0,1-3.22,1.74,8.9,8.9,0,0,1-3.79.9,5.24,5.24,0,0,1-4-1.52,5.9,5.9,0,0,1-1.43-4.24c0-1,0-2.16,0-3.52s0-2.34,0-3c0-1.12,0-2.5-.05-4.14s0-2.57,0-2.78h2.91c0,.16,0,1,0,2.66s0,2.9,0,3.86,0,1.9,0,3.17,0,2.17,0,2.69A5.75,5.75,0,0,0,380,137a2.68,2.68,0,0,0,2.33,1,8.71,8.71,0,0,0,3.6-.89,17,17,0,0,0,2.89-1.54c0-.15,0-.83,0-2s0-2.72,0-4.53c0-1.29,0-2.84-.05-4.64s0-2.79,0-3h2.91c0,.21,0,.91,0,2.08s0,3.18,0,6c0,1.58,0,3,0,4.17S391.69,137,391.71,140.09Z"/>
            <path class="cls-2" d="M411.87,130.59a8.75,8.75,0,0,1-5.5,8.45,16,16,0,0,1-3.74,1,34.71,34.71,0,0,1-5.06.32h-1.64c0-.95,0-2.7.05-5.27s0-5.66,0-9.28q0-3.31,0-6.43t-.06-6.36h2.92l-.06,8.5a24.12,24.12,0,0,1,6.06.68,11.88,11.88,0,0,1,3.79,1.72,7.45,7.45,0,0,1,2.4,2.81A8.5,8.5,0,0,1,411.87,130.59Zm-2.95.08a5.62,5.62,0,0,0-1.26-3.74,7.15,7.15,0,0,0-3.26-2.19,13.22,13.22,0,0,0-2.23-.55,15.44,15.44,0,0,0-2.47-.19h-.91c0,.27,0,1.25,0,2.94s0,3.08,0,4.17c0,2,0,3.5,0,4.35s0,1.71,0,2.58a20.23,20.23,0,0,0,3.71-.31,10,10,0,0,0,2.9-.95,6.24,6.24,0,0,0,2.63-2.47A7.29,7.29,0,0,0,408.92,130.67Z"/>
            <path class="cls-2" d="M428.73,129.57c0,3.05,0,5.53,0,7.45s0,3,0,3.1l-1.72.14c-1,.08-2.34.12-4,.12a16.53,16.53,0,0,1-3-.28,10.42,10.42,0,0,1-2.64-.79,6.18,6.18,0,0,1-2.39-1.86,4.51,4.51,0,0,1-.91-2.84,4.58,4.58,0,0,1,1.08-3,7.49,7.49,0,0,1,3-2.07,16.54,16.54,0,0,1,3.2-.9,42.26,42.26,0,0,1,4.57-.6,4.81,4.81,0,0,0-.72-2.36,3.75,3.75,0,0,0-1.79-1.4,7.37,7.37,0,0,0-1.81-.47,15.87,15.87,0,0,0-2.32-.14c-.55,0-1,0-1.41,0l-1.58.09.3-2.46,1.09-.06c.55,0,1.3,0,2.24,0a14.83,14.83,0,0,1,3.89.46,6.74,6.74,0,0,1,2.83,1.46,6.12,6.12,0,0,1,1.59,2.37A12.29,12.29,0,0,1,428.73,129.57ZM425.91,134v-1.59c0-.64,0-1.38,0-2.21-.54,0-1.49.13-2.84.32a15.37,15.37,0,0,0-3.41.82,5.31,5.31,0,0,0-1.84,1.16,2.59,2.59,0,0,0-.8,1.92,2.94,2.94,0,0,0,.68,2,4.37,4.37,0,0,0,1.86,1.17,9.73,9.73,0,0,0,2,.45,17.07,17.07,0,0,0,2.31.14c.25,0,.55,0,.91,0l1.12,0c0-.09,0-.49,0-1.22S425.91,135.25,425.91,134Z"/>
            <path class="cls-2" d="M443.09,137.8l-.34,2.34c-.08,0-.29,0-.63,0l-.88,0a8.91,8.91,0,0,1-5.72-1.58,5.88,5.88,0,0,1-1.94-4.84c0-1.37,0-2.83,0-4.4s0-3.49,0-5.81h-3.1v-2.16h3.27V117h2.67v4.37h6.61v2.16h-6.61q0,.39,0,2.31c0,1.28,0,2.23,0,2.84v4.58a4.24,4.24,0,0,0,1.29,3.46,6.25,6.25,0,0,0,4,1.06h1.39Z"/>
            <path class="cls-2" d="M450.09,117.84h-3.24v-3.18h3.24Zm-.16,22.25H447c0-.2,0-1.41.05-3.64s0-4.06,0-5.52c0-1.26,0-2.65,0-4.17s0-3.3-.07-5.35h2.92c0,1.78-.05,3.43-.07,5s0,2.92,0,4.12q0,4.31.05,6.9C449.91,139.14,449.93,140,449.93,140.09Z"/>
            <path class="cls-2" d="M472.32,130.75a11,11,0,0,1-.77,4.1,9.31,9.31,0,0,1-2.2,3.34,8.76,8.76,0,0,1-2.7,1.77,9,9,0,0,1-3.37.61A9.32,9.32,0,0,1,460,140a8.29,8.29,0,0,1-2.77-1.77,9,9,0,0,1-2.17-3.32,11.92,11.92,0,0,1-.11-8.07,9.09,9.09,0,0,1,2-3.2,8.63,8.63,0,0,1,2.88-2,8.84,8.84,0,0,1,3.47-.69,9.22,9.22,0,0,1,3.48.63,8,8,0,0,1,2.77,1.91,9.45,9.45,0,0,1,2.09,3.28A11.37,11.37,0,0,1,472.32,130.75Zm-2.95.13a10.51,10.51,0,0,0-.56-3.38,6.84,6.84,0,0,0-1.75-2.76,4.94,4.94,0,0,0-1.7-1.08,5.31,5.31,0,0,0-6.05,1.3,7,7,0,0,0-1.54,2.54,9.51,9.51,0,0,0-.56,3.21,10.09,10.09,0,0,0,.57,3.46,6.64,6.64,0,0,0,1.85,2.72,5.06,5.06,0,0,0,1.66,1,6,6,0,0,0,4.16-.06,5.15,5.15,0,0,0,1.76-1.18,7.23,7.23,0,0,0,1.61-2.59A9.35,9.35,0,0,0,469.37,130.88Z"/>
            <path class="cls-2" d="M491.78,140.09h-2.91c0-.35,0-1.49,0-3.42s0-3.12,0-3.58c0-.64,0-1.58,0-2.83s0-2.16,0-2.74a4.94,4.94,0,0,0-.81-3,3.2,3.2,0,0,0-2.62-.93,7.84,7.84,0,0,0-2.78.67,22.11,22.11,0,0,0-3.36,1.7c0,.13,0,.86,0,2.19s0,2.54,0,3.64c0,1.42,0,3.15,0,5.16s0,3.08,0,3.18h-2.91c0-.09,0-.84,0-2.26s0-3.54,0-6.34c0-1.29,0-2.81,0-4.54s0-3.58-.06-5.54h2.88l0,2.13,0,0a25.21,25.21,0,0,1,4.3-2,9.3,9.3,0,0,1,2.87-.58,5,5,0,0,1,3.79,1.48,5.6,5.6,0,0,1,1.43,4.07c0,1.55,0,2.89,0,4s0,2,0,2.74c0,1.12,0,2.52.05,4.2S491.78,140,491.78,140.09Z"/>
            <path class="cls-1" d="M336.19,162.52a6.1,6.1,0,0,1-.9,3.33,6.93,6.93,0,0,1-2.41,2.31,11,11,0,0,1-3.18,1.23,17.4,17.4,0,0,1-4,.42c-.79,0-1.6,0-2.45-.08l-1.47-.09-.14-2.66c.17,0,.65.07,1.44.14s1.71.1,2.78.1a16.15,16.15,0,0,0,2.53-.25,9.28,9.28,0,0,0,2.38-.67,4.79,4.79,0,0,0,1.67-1.29,3,3,0,0,0,.58-1.92,3.62,3.62,0,0,0-.58-2.09,5.71,5.71,0,0,0-1.93-1.65,24.73,24.73,0,0,0-2.25-1.17,25.94,25.94,0,0,1-2.49-1.32,7.73,7.73,0,0,1-2.69-2.5,5.88,5.88,0,0,1-.8-3,5.77,5.77,0,0,1,.73-2.94,7.46,7.46,0,0,1,1.9-2.14,8,8,0,0,1,2.89-1.32,14.87,14.87,0,0,1,3.79-.45c.77,0,1.54,0,2.32.07l1.34.08.26,2.68-1.35-.13c-.78-.08-1.76-.11-2.91-.11a9.91,9.91,0,0,0-2.13.23,6.39,6.39,0,0,0-1.93.71A3.69,3.69,0,0,0,326,149.2a3,3,0,0,0-.52,1.77,3.17,3.17,0,0,0,.54,1.74,6.26,6.26,0,0,0,2,1.73c.51.31,1.17.66,2,1.06s1.65.83,2.45,1.3a8.29,8.29,0,0,1,2.77,2.5A5.64,5.64,0,0,1,336.19,162.52Z"/>
            <path class="cls-2" d="M355.36,177.87h-2.94l.08-8.43a25.19,25.19,0,0,1-4.35-.33,14.16,14.16,0,0,1-3.24-.91,9.25,9.25,0,0,1-4.13-3.24,8.73,8.73,0,0,1-1.42-5.08,7.9,7.9,0,0,1,1.26-4.3,9.23,9.23,0,0,1,3.44-3.17,12.76,12.76,0,0,1,4-1.39,31.41,31.41,0,0,1,5.46-.38h1.87q0,3.66-.06,7.49c0,2.54,0,4.09,0,4.65q0,3.85,0,9.3C355.34,175.72,355.36,177.65,355.36,177.87Zm-2.85-16.17q0-4.41,0-6.46c0-1.37,0-2.12,0-2.26a20.92,20.92,0,0,0-3.61.28,10.86,10.86,0,0,0-3.14,1.05,5.86,5.86,0,0,0-2.49,2.29,6.31,6.31,0,0,0-.91,3.35,6.49,6.49,0,0,0,1,3.63,6.73,6.73,0,0,0,2.85,2.41,11,11,0,0,0,2.54.83,17.1,17.1,0,0,0,3.23.27h.58v-2.41C352.51,163.75,352.51,162.75,352.51,161.7Z"/>
            <path class="cls-2" d="M375,169.47h-2.82v-2.14h0a26.24,26.24,0,0,1-3.22,1.74,8.88,8.88,0,0,1-3.79.89,5.24,5.24,0,0,1-4-1.51,5.9,5.9,0,0,1-1.43-4.24c0-1,0-2.16,0-3.52s0-2.34,0-3c0-1.12,0-2.5-.05-4.14s0-2.57,0-2.78h2.91c0,.16,0,1,0,2.66s0,2.9,0,3.86,0,1.9,0,3.17,0,2.16,0,2.69a5.71,5.71,0,0,0,.75,3.19,2.66,2.66,0,0,0,2.33,1,8.87,8.87,0,0,0,3.6-.89,16.9,16.9,0,0,0,2.89-1.55c0-.14,0-.82,0-2s0-2.73,0-4.53c0-1.3,0-2.84-.05-4.64s0-2.79,0-2.95H375c0,.21,0,.9,0,2.08s0,3.18,0,6c0,1.59,0,3,0,4.18S374.93,166.4,375,169.47Z"/>
            <path class="cls-2" d="M391.84,159q0,4.57,0,7.45c0,1.92,0,3,0,3.1l-1.72.14c-1,.08-2.34.12-3.95.12a16.53,16.53,0,0,1-3-.28,10.84,10.84,0,0,1-2.64-.79,6.46,6.46,0,0,1-2.39-1.86,4.52,4.52,0,0,1-.91-2.85,4.57,4.57,0,0,1,1.08-3,7.72,7.72,0,0,1,3-2.08,16.93,16.93,0,0,1,3.2-.89,41.72,41.72,0,0,1,4.56-.6,4.81,4.81,0,0,0-.72-2.36,3.7,3.7,0,0,0-1.79-1.4,7.41,7.41,0,0,0-1.8-.47,16,16,0,0,0-2.33-.14q-.83,0-1.41,0l-1.58.1.3-2.46,1.09-.06c.55,0,1.3,0,2.25,0a15.26,15.26,0,0,1,3.88.45,6.76,6.76,0,0,1,2.83,1.47,6.12,6.12,0,0,1,1.59,2.37A12,12,0,0,1,391.84,159ZM389,163.4v-1.58c0-.64,0-1.38,0-2.22-.54,0-1.49.14-2.84.33a15.37,15.37,0,0,0-3.41.82,5.31,5.31,0,0,0-1.84,1.16,2.59,2.59,0,0,0-.8,1.92,2.94,2.94,0,0,0,.68,2,4.35,4.35,0,0,0,1.87,1.17,9.63,9.63,0,0,0,2,.45,17.07,17.07,0,0,0,2.31.14c.25,0,.55,0,.91,0l1.12,0c0-.09,0-.5,0-1.22S389,164.63,389,163.4Z"/>
            <path class="cls-2" d="M406.88,153a31.21,31.21,0,0,0-3.11,1q-2.08.78-4.82,2.07c0,.14,0,.76,0,1.86s0,2.12,0,3.07c0,1.45,0,3.17,0,5.16s0,3.1,0,3.32h-2.91c0-.2,0-.89,0-2.06s0-3.17,0-6c0-1.14,0-2.74,0-4.8s0-4-.05-5.81H399v2.81l0,0a41.36,41.36,0,0,1,4.11-2,23.94,23.94,0,0,1,3.25-1.18Z"/>
            <path class="cls-2" d="M424.37,159.46H411a7.92,7.92,0,0,0,.83,3.58,6.79,6.79,0,0,0,2.49,2.71,8.31,8.31,0,0,0,2.43,1,13.63,13.63,0,0,0,3.29.34c.7,0,1.34,0,1.92-.05s.95-.06,1.08-.08l-.33,2.46-1,.06c-.55,0-1.2.05-1.95.05a15.58,15.58,0,0,1-5.14-.77,9.73,9.73,0,0,1-3.59-2.11,9.53,9.53,0,0,1-2-2.88,8.87,8.87,0,0,1-.84-3.89,10.86,10.86,0,0,1,.63-3.8,10.46,10.46,0,0,1,1.88-3.16,7.34,7.34,0,0,1,2.7-1.93,8.81,8.81,0,0,1,6.4-.17,6.13,6.13,0,0,1,2.3,1.57,7.8,7.8,0,0,1,1.66,2.9A13.3,13.3,0,0,1,424.37,159.46Zm-2.86-2.07A6.07,6.07,0,0,0,420,153.8a4.44,4.44,0,0,0-3.33-1.3,4.79,4.79,0,0,0-3.45,1.32,6.94,6.94,0,0,0-1.92,3.57Z"/>
        </g>
            <!--THIS-->
        <g id="THIS">
            <path class="cls-1" d="M95.34,71.56l-11.16-.09q-9.83-.07-29.72-.08-.18,17.08-.25,25.92t-.09,24.08q0,14.67.13,29.8t.21,20.12H40.72q.16-5,.29-20.42t.12-30.16v-23q0-8.54-.25-26.29-17.73-.08-28.76,0T0,71.56V60.07q8.58,0,20.86.08t26.19.08q20.14,0,33.68-.08l14.61-.08Z"/>
            <path class="cls-1" d="M194.12,171.44H180.38q.09-5,.21-18.45t.12-33.51l-14.82,0q-13.57,0-20.4,0-8.24,0-19.77,0l-12.54,0q0,23.14.13,35.05t.21,16.91H99.78q.07-5,.25-17.74t.16-43q0-9.15-.12-22.31t-.29-28.4h13.74q0,12.66-.17,24.86T113.18,108l10.87,0q9.87,0,21.53,0,9,0,21.64,0l13.49,0q0-11-.16-23.15t-.17-24.9h13.74Q194,72.51,193.83,89t-.13,26.9q0,24.48.17,37.51T194.12,171.44Z"/>
            <path class="cls-1" d="M309.53,139.92a27.75,27.75,0,0,1-4,15A31.19,31.19,0,0,1,294.6,165.4a50.83,50.83,0,0,1-14.34,5.54,79.4,79.4,0,0,1-17.92,1.87q-5.34,0-11-.33c-3.8-.23-6-.36-6.63-.42l-.66-12c.77.11,2.94.32,6.49.62s7.75.46,12.58.46a71.84,71.84,0,0,0,11.4-1.16,40.5,40.5,0,0,0,10.74-3,20.85,20.85,0,0,0,7.54-5.83,13.78,13.78,0,0,0,2.62-8.66,16.44,16.44,0,0,0-2.62-9.45q-2.62-3.87-8.7-7.45c-2.61-1.56-6-3.3-10.16-5.25a110.85,110.85,0,0,1-11.24-6q-8.49-5.16-12.12-11.29a26.25,26.25,0,0,1-3.62-13.61,25.85,25.85,0,0,1,3.29-13.28,33,33,0,0,1,8.55-9.62,37.07,37.07,0,0,1,13.05-6,68,68,0,0,1,17.14-2q5.16,0,10.46.29c3.53.19,5.55.32,6.05.37l1.16,12.08q-.75-.09-6.07-.58t-13.16-.5a46.31,46.31,0,0,0-9.62,1,29.36,29.36,0,0,0-8.7,3.2,17.29,17.29,0,0,0-5.66,5.33,13.79,13.79,0,0,0-2.33,8,14.28,14.28,0,0,0,2.45,7.87q2.46,3.8,9.2,7.79,3.42,2.08,9,4.79t11,5.87a37.24,37.24,0,0,1,12.53,11.28A25.73,25.73,0,0,1,309.53,139.92Z"/>
            <path class="cls-2" d="M226.93,171.31H213.19q.08-5.55.25-19.82t.16-40.94q0-10.56-.08-27.7t-.33-35.57h13.74q-.18,13.26-.3,30.8t-.12,28.67q0,28.16.17,43.58T226.93,171.31Z"/>
            <path class="cls-2" d="M220.06,5.73V32"/>
            <path class="cls-2" d="M225.06,5.73,221.45,32a1.41,1.41,0,0,1-2.79,0l-3.6-26.26a5,5,0,0,1,10-1.37A5.71,5.71,0,0,1,225.06,5.73Z"/>
            <path class="cls-2" d="M242.74,16.18l-13.47,18.1"/>
            <path class="cls-2" d="M246.75,19.16l-16.36,16a1.42,1.42,0,0,1-2,0,1.4,1.4,0,0,1-.24-1.64l10.58-20.26a5.06,5.06,0,1,1,8,6Z"/>
            <path class="cls-2" d="M195.65,16.18l15.19,18.1"/>
            <path class="cls-2" d="M199.48,13l12.43,20.42a1.41,1.41,0,0,1-2.14,1.8l-18-15.79a5.06,5.06,0,0,1,6.68-7.6A5.4,5.4,0,0,1,199.48,13Z"/>
        </g>
            <!--Produced by-->
        <g id="Produced">
            <path class="cls-1" d="M387.61,36.2c-.15.56-1.27,4.12-1.29,4.25a5.09,5.09,0,0,0-.05.69,3.19,3.19,0,0,0,.2,1,3.08,3.08,0,0,1,.24,1.08c0,.4-.11,1-.69,1a.58.58,0,0,1-.66-.64c0-.12.08-.66.1-.78.1-1,.11-1.11.11-1.22,0-1.24-.31-1.49-.9-1.92l0-.1c.68.07,1.24,0,2.49-3.45.28-.78.35-1,1-2.66l.15,0C388.27,33.76,387.74,35.74,387.61,36.2Zm-1.31-.94c-.39,0-.49-.23-.84-1.16a2.24,2.24,0,0,0-.66-.92l.05-.08a4.41,4.41,0,0,1,1.24.52,1.42,1.42,0,0,1,.69,1.11A.48.48,0,0,1,386.3,35.26Zm1.42-3.62c-.33,0-.44-.2-.86-.87a4.83,4.83,0,0,0-.86-1l.07-.1c.27.05,2.1.41,2.1,1.47C388.17,31.51,387.94,31.64,387.72,31.64Zm5,7.92h-1.34V42l1.31-.44v.11a25.52,25.52,0,0,1-3.79,2c-.1.23-.18.46-.33.46s-.16-.08-.25-.2l-.81-1.09a1.79,1.79,0,0,0,.4,0,4.52,4.52,0,0,0,.58-.08c0-.5-.05-2.63-.05-3.08a9.93,9.93,0,0,0-.2-2.31l1.36.46a.25.25,0,0,1,.19.25c0,.12,0,.17-.57.53,0,.71,0,3.21,0,4a11.68,11.68,0,0,0,1.38-.4c0-.38,0-2.07,0-2.4v-.92a12.1,12.1,0,0,0-.2-2.73l1.36.43c.08,0,.2.07.2.2s-.23.33-.6.5v1.88h.27l.23-.45c.06-.11.11-.23.23-.23a.51.51,0,0,1,.3.18l.43.47a.35.35,0,0,1,.14.26C392.94,39.56,392.75,39.56,392.68,39.56Zm6.18-4h-7.72a12.11,12.11,0,0,0-2.11.2l-.4-.73c.43,0,1,.08,2,.11,0-.11,0-.64,0-.76,0-1.24,0-1.38,0-1.63a6.49,6.49,0,0,0-.37-2.53l1.52.51c.15.05.25.15.25.27s-.13.2-.25.26l-.39.28v3.62h1.83c0-1.67,0-4.3-.1-5.06a7.37,7.37,0,0,0-.2-.81l1.66.63c.1,0,.18.07.18.2s-.45.41-.68.53c0,.12,0,.91,0,1.37h2.15l.42-.61c.06-.08.14-.21.26-.21a.58.58,0,0,1,.31.16l.7.63c.1.1.16.15.16.25s-.13.18-.24.18h-3.76v2.74h3.16l.51-.68c.09-.11.15-.21.25-.21a.55.55,0,0,1,.32.18l.59.68c.12.11.15.16.15.25S399,35.56,398.86,35.56Zm.12,8.19h-5a13.1,13.1,0,0,0-2.13.2l-.4-.71c.74,0,1.6.1,2,.1,0-2.51,0-2.83,0-3.72a6.41,6.41,0,0,0-.13-1.73l1.31.49a.23.23,0,0,1,.16.22c0,.16-.36.39-.54.51,0,.2,0,1,0,2.89v1.36h1.23c0-.1-.09-4.28-.09-5.06a6.62,6.62,0,0,0-.16-2.1l1.39.48c.18.07.23.13.23.22s-.15.23-.22.28l-.44.28c0,.34,0,1.86,0,2.18h1.16l.41-.53c.15-.2.18-.2.25-.2s.23.12.3.18l.49.52c.05.06.17.14.17.24s-.13.19-.27.19h-2.51c0,.66,0,2.79,0,3.32h1.19l.5-.66c.07-.1.15-.22.25-.22a.5.5,0,0,1,.31.18l.65.66a.42.42,0,0,1,.14.25C399.22,43.72,399.09,43.75,399,43.75Z"/>
            <path class="cls-1" d="M402.55,35.72c-.32,0-.37-.11-.68-.77a1.85,1.85,0,0,0-.94-1.09l0-.09c1.75.12,2,1.06,2,1.41S402.86,35.72,402.55,35.72Zm.91,2.12c-.48,1.67-.55,1.85-.63,2.2a1.58,1.58,0,0,0-.05.43,4.88,4.88,0,0,0,.51,1.58c.33.6.43.76.43,1.08a.7.7,0,0,1-.71.79c-.54,0-.74-.53-.74-1.37a3.5,3.5,0,0,0-.32-1.84,1.58,1.58,0,0,0-1-.92l0-.15a.64.64,0,0,0,.27,0c.43,0,.67-.17,1.14-1.21.38-.82.48-1.06,1.27-3l.91-2.25.1.05C404.1,35.66,404,36,403.46,37.84Zm.23-6.38c-.43,0-.6-.33-.93-1.08a2.88,2.88,0,0,0-.66-.89l.07-.06a8,8,0,0,1,1.27.38,1.18,1.18,0,0,1,.74,1.09C404.18,31.29,404,31.46,403.69,31.46Zm11.81,5.39h-3.38l.56.38c.08.05.15.11.15.18s-.42.23-.7.26-.86.94-1,1.11h2.28l.46-.66c.05-.08.15-.22.25-.22a.46.46,0,0,1,.3.17l.66.66c.12.12.17.17.17.26s-.14.19-.25.19h-4.68c0,.11,0,1.38,0,1.62h2.31l.47-.57c.11-.14.16-.21.26-.21s.21.1.28.16l.64.58c.14.14.15.2.15.25s-.13.18-.24.18h-3.85c0,.18,0,1,0,1.13s.05,1.14.05,1.32a.69.69,0,0,1-.69.71c-.27,0-.3-.13-.3-.53s0-2.25,0-2.63h-1.34a13.17,13.17,0,0,0-2.11.2l-.4-.71c.91.07,1.84.12,2.75.12h1.09V39.18h-2a12.81,12.81,0,0,0-2.12.18l-.39-.71c.9.08,1.83.13,2.74.13h3.24c.06-.15.34-1,.41-1.24a2.1,2.1,0,0,0,.13-.69H408.1a1.71,1.71,0,0,1,.94,1.34.55.55,0,0,1-.54.56c-.43,0-.46-.4-.53-.85a2.16,2.16,0,0,0-.38-1h-.35a12.87,12.87,0,0,0-2.11.18l-.4-.71c.91.08,1.83.13,2.74.13h2c0-.48,0-1.17,0-1.6H408.3a13,13,0,0,0-2.13.19l-.4-.71c.93.07,1.84.12,2.76.12h.93a5.94,5.94,0,0,0-.22-1.45l1.29.38c.15,0,.23.1.23.19s-.05.15-.44.37a3.94,3.94,0,0,0,0,.51h1.83l.42-.54c.11-.15.16-.22.26-.22a.43.43,0,0,1,.3.17l.53.56c.11.11.15.16.15.24s-.14.19-.25.19H410.3c0,.51,0,1.1,0,1.6h3.55l.58-.66c.12-.12.2-.22.28-.22a.48.48,0,0,1,.3.17l.59.66c.12.13.15.2.15.26S415.64,36.85,415.5,36.85Zm-1.38-6.12c0,.13.1,1.9.1,2,0,.43-.43.51-.6.51-.33,0-.31-.23-.31-.4h-6.58c0,.22,0,.55-.56.55-.33,0-.33-.31-.33-.5s.08-1.25.08-1.37c0-.29,0-1.27,0-1.49a4.67,4.67,0,0,0-.07-.64l1.29.66h6l.28-.36a.4.4,0,0,1,.28-.18.94.94,0,0,1,.33.14l.53.37c.11.08.2.13.2.25S414.61,30.43,414.12,30.73Zm-5.74-.31h-1.63v2h1.63Zm2.55,0h-1.74v2h1.74Zm2.38,0h-1.59v2h1.59Z"/>
            <path class="cls-1" d="M421.61,38.5c0,1.73,0,2-1.13,2.26a1.49,1.49,0,0,0-.86-1.07l0-.07a4,4,0,0,0,.94,0c.2-.07.2-.15.22-.91-1.23.29-2.15.49-2.76.61-.07.28-.1.36-.24.36s-.23-.21-.26-.28l-.48-1a26.33,26.33,0,0,0,3.72-.31,5,5,0,0,0-.12-1.26l.9.15a6.48,6.48,0,0,0,.81-.74h-2.09a11.22,11.22,0,0,0-2.11.2l-.4-.71c1.24.1,2.45.11,2.74.11h2.15l.42-.26c.1-.07.16-.12.24-.12a.66.66,0,0,1,.27.12l.61.36a.29.29,0,0,1,.18.25c0,.11,0,.21-.82.21l-1.74.63a.13.13,0,0,1,.07.1c0,.1,0,.12-.28.26a2.66,2.66,0,0,0,0,.58c.49-.06,2.69-.36,3.14-.44v.18C424.12,37.87,423.49,38.05,421.61,38.5Zm3.45-6.74h-5.34a13.22,13.22,0,0,0-2.13.18l-.38-.71c1.24.1,2.43.13,2.74.13h1a7,7,0,0,0-.13-2.07l1.22.38c.17,0,.27.09.27.2s-.09.15-.15.18a4,4,0,0,1-.37.25v1.06h1.74l.5-.5c.18-.18.19-.19.26-.19a.8.8,0,0,1,.3.16l.59.5c.08.06.17.13.17.24S425.17,31.76,425.06,31.76ZM431.6,43.7H420a13.26,13.26,0,0,0-2.13.19l-.38-.71c1.24.09,2.43.13,2.74.13h4.27c0-1,0-1.06,0-1.52h-2a13.18,13.18,0,0,0-2.12.2l-.4-.71c1.24.09,2.45.11,2.75.11h1.8a16.29,16.29,0,0,0-.1-1.88l1.14.31c.33.1.35.18.35.25s0,.11-.47.44v.88h2.7l.41-.63c.07-.1.15-.21.25-.21s.15.05.31.18l.78.63a.35.35,0,0,1,.16.26c0,.15-.14.17-.24.17h-4.37v1.52h4.27l.72-.66c.2-.19.22-.19.28-.19s.14,0,.3.19l.75.62a.35.35,0,0,1,.16.25C431.85,43.67,431.72,43.7,431.6,43.7Zm-7.93-10.32c0,.18,0,1.37,0,1.42-.11.23-.54.29-.64.29s-.18-.14-.18-.24h-3.26c0,.28-.48.38-.67.38s-.24-.09-.24-.25,0-.37,0-.41c0-.4,0-1,0-1.44a5,5,0,0,0-.05-.75l1,.47h3l.33-.33a.51.51,0,0,1,.23-.12c.06,0,.08,0,.2.12l.36.28c.12.08.15.11.15.2S423.72,33.33,423.67,33.38Zm-.81-.14h-3.3v1.21h3.3ZM431.52,40c-.21,0-2.64-.2-2.64-4.93,0-.34.1-1.88.11-2.21h-1.62a15.65,15.65,0,0,1-.29,2.74c1,.66,1.1,1,1.1,1.29s-.05.45-.39.45-.4-.15-.62-.48a3.71,3.71,0,0,0-.36-.46,6.32,6.32,0,0,1-3.6,3.28l0-.09a7.3,7.3,0,0,0,3-3.82,7,7,0,0,0-1.38-1l0-.08a7.58,7.58,0,0,1,1.49.53,13.85,13.85,0,0,0,.21-2.35,11.37,11.37,0,0,0-1.67.2l-.38-.71c.86.06,1.47.11,2.07.11,0-1.63,0-2,0-2.46a1.78,1.78,0,0,0-.19-.82l1.32.36c.13,0,.26.06.26.2s0,.13-.48.49c0,.7,0,1.36,0,2.23h1.27l.6-.61c.11-.13.15-.16.21-.16s.27.15.28.15l.5.39a.4.4,0,0,1,.15.25c0,.13,0,.18-.6.63-.05.58-.11,1.52-.11,2.26,0,1.77.51,3.11,1,3.11.12,0,.2,0,.55-.55.16-.24.24-.38.56-.91l.08,0a10.31,10.31,0,0,0-.31,1.65,1.9,1.9,0,0,0,.31.64.81.81,0,0,1,.1.3C432,40,431.64,40,431.52,40Z"/>
            <path class="cls-1" d="M448,34.5l-3.13,3.13L448,40.75l-.67.67-3.12-3.12-3.12,3.11-.66-.67,3.12-3.12-3.11-3.12.64-.64L444.22,37l3.13-3.14Z"/>
            <path class="cls-1" d="M452.81,42.73H451.5L456.56,31h1.16l5,11.7h-1.32l-1.29-3.08h-6.05Zm1.72-4.17h5.16l-2.58-6.21Z"/>
            <path class="cls-1" d="M467,35.94h-2.18v4.51a2.41,2.41,0,0,0,.09.71.93.93,0,0,0,.24.44.8.8,0,0,0,.37.21,1.7,1.7,0,0,0,.46.06,1.76,1.76,0,0,0,.49-.07,2,2,0,0,0,.48-.18l0,1a3.7,3.7,0,0,1-1.32.23,2.61,2.61,0,0,1-.66-.09,1.59,1.59,0,0,1-.64-.31,1.67,1.67,0,0,1-.49-.63,2.36,2.36,0,0,1-.19-1V35.94h-1.6V35h1.6V32.81h1.12V35H467Z"/>
            <path class="cls-1" d="M472.48,35.94H470.3v4.51a2.44,2.44,0,0,0,.08.71.93.93,0,0,0,.24.44.85.85,0,0,0,.37.21,1.77,1.77,0,0,0,.95,0,2.22,2.22,0,0,0,.49-.18l.05,1a4.37,4.37,0,0,1-.62.17,3.88,3.88,0,0,1-.7.06,2.61,2.61,0,0,1-.66-.09,1.63,1.63,0,0,1-.65-.31,1.67,1.67,0,0,1-.49-.63,2.51,2.51,0,0,1-.19-1V35.94h-1.6V35h1.6V32.81h1.13V35h2.18Z"/>
            <path class="cls-1" d="M475.22,32a.72.72,0,0,1-.25.57.76.76,0,0,1-.54.22.8.8,0,0,1-.55-.22.77.77,0,0,1,0-1.14.82.82,0,0,1,.55-.23.78.78,0,0,1,.54.23A.72.72,0,0,1,475.22,32ZM475,42.73h-1.12V35H475Z"/>
            <path class="cls-1" d="M482.56,36.76a2.09,2.09,0,0,0-.82-.73,2.32,2.32,0,0,0-1.16-.29,3.07,3.07,0,0,0-1.23.24,2.81,2.81,0,0,0-.93.66,2.75,2.75,0,0,0-.59,1,3.53,3.53,0,0,0-.21,1.23,3.43,3.43,0,0,0,.21,1.22,2.88,2.88,0,0,0,.58,1,2.71,2.71,0,0,0,.93.66,3,3,0,0,0,1.22.24,2.67,2.67,0,0,0,1.26-.28,2.58,2.58,0,0,0,.84-.73l.84.63a3.58,3.58,0,0,1-1.21,1,3.71,3.71,0,0,1-1.73.37,4.6,4.6,0,0,1-1.7-.31,3.76,3.76,0,0,1-1.3-.85,3.63,3.63,0,0,1-.83-1.29,4.52,4.52,0,0,1,0-3.24,3.72,3.72,0,0,1,.83-1.29,3.76,3.76,0,0,1,1.3-.85,4.6,4.6,0,0,1,1.7-.31,4.16,4.16,0,0,1,1.58.34,3.16,3.16,0,0,1,1.3,1Z"/>
            <path class="cls-1" d="M489,41.67h5.46v1.06H487.8V31H489Z"/>
            <path class="cls-1" d="M500.59,37.72a1.91,1.91,0,0,0-.53-1.49,2.15,2.15,0,0,0-1.53-.49,3.19,3.19,0,0,0-1.29.25,2.86,2.86,0,0,0-1,.66l-.63-.75a3.67,3.67,0,0,1,1.27-.79,4.69,4.69,0,0,1,1.77-.32,3.79,3.79,0,0,1,1.18.18,2.79,2.79,0,0,1,1,.52,2.46,2.46,0,0,1,.64.87,3.19,3.19,0,0,1,.23,1.24V41q0,.45,0,.93c0,.32.06.59.1.81h-1a5.24,5.24,0,0,1-.09-.61c0-.22,0-.44,0-.65h0a3.41,3.41,0,0,1-1.2,1.12,3.64,3.64,0,0,1-1.61.34,3.3,3.3,0,0,1-.92-.13,2.7,2.7,0,0,1-.86-.4,2.55,2.55,0,0,1-.65-.73,2.21,2.21,0,0,1-.25-1.1,2.1,2.1,0,0,1,.45-1.42,2.92,2.92,0,0,1,1.22-.78,7.18,7.18,0,0,1,1.74-.33c.66,0,1.34-.07,2-.07Zm-.33,1.14c-.46,0-.93,0-1.39.06a6,6,0,0,0-1.28.23,2.43,2.43,0,0,0-.93.5,1.15,1.15,0,0,0-.36.88,1.41,1.41,0,0,0,.15.69,1.43,1.43,0,0,0,.42.46,2.06,2.06,0,0,0,.59.25,2.88,2.88,0,0,0,.65.07,2.54,2.54,0,0,0,1.06-.21,2.11,2.11,0,0,0,.78-.56,2.4,2.4,0,0,0,.48-.82,2.82,2.82,0,0,0,.16-1v-.58Z"/>
            <path class="cls-1" d="M504.51,41.42v1.31h-1.12V30.23h1.12v6.1h0a3.17,3.17,0,0,1,1.29-1.15,3.69,3.69,0,0,1,1.64-.39,4.1,4.1,0,0,1,1.64.32,3.73,3.73,0,0,1,2.07,2.15,4.56,4.56,0,0,1,0,3.2,3.73,3.73,0,0,1-2.07,2.15,4.1,4.1,0,0,1-1.64.32,3.82,3.82,0,0,1-1.64-.38,3.2,3.2,0,0,1-1.29-1.13Zm5.77-2.56a3.7,3.7,0,0,0-.2-1.21,3,3,0,0,0-.57-1,2.58,2.58,0,0,0-.92-.66,2.86,2.86,0,0,0-1.24-.25,2.88,2.88,0,0,0-2.13.9,3.14,3.14,0,0,0-.62,1,3.55,3.55,0,0,0,0,2.46,2.94,2.94,0,0,0,1.56,1.64,2.94,2.94,0,0,0,1.19.24,3,3,0,0,0,1.24-.24,2.58,2.58,0,0,0,.92-.66,2.85,2.85,0,0,0,.57-1A3.76,3.76,0,0,0,510.28,38.86Z"/>
            <path class="cls-2" d="M379,20.51a2.51,2.51,0,0,1-.57,1.6,2.86,2.86,0,0,1-1.53,1,7,7,0,0,1-.9.16c-.32,0-.68,0-1.08,0v2.56h-1c0-.24,0-.69,0-1.34s0-1.67,0-3.05v-1.6c0-.63,0-1.34,0-2.11h.92a10,10,0,0,1,1.78.14,3.37,3.37,0,0,1,1.24.45,2.34,2.34,0,0,1,.84.9A2.79,2.79,0,0,1,379,20.51Zm-1,0a1.74,1.74,0,0,0-1.16-1.75,2.24,2.24,0,0,0-.78-.2,8.44,8.44,0,0,0-.87,0h-.23s0,.35,0,.91,0,1,0,1.33v1.75h.25a6.58,6.58,0,0,0,.86-.05,2.78,2.78,0,0,0,.78-.2,2,2,0,0,0,.87-.67A1.86,1.86,0,0,0,377.94,20.51Z"/>
            <path class="cls-2" d="M384.14,20.43c-.22.06-.56.17-1,.34s-1,.39-1.58.67v.61c0,.36,0,.7,0,1,0,.47,0,1,0,1.69s0,1,0,1.09h-1c0-.06,0-.29,0-.67s0-1,0-2c0-.38,0-.9,0-1.58s0-1.3,0-1.9h.94v.92h0A14.1,14.1,0,0,1,382.9,20a8.27,8.27,0,0,1,1.06-.39Z"/>
            <path class="cls-2" d="M390.75,22.78a3.55,3.55,0,0,1-.25,1.34,3.09,3.09,0,0,1-.72,1.1,2.85,2.85,0,0,1-.89.58,2.92,2.92,0,0,1-1.1.2,2.9,2.9,0,0,1-2-.77,3,3,0,0,1-.71-1.09,3.94,3.94,0,0,1,0-2.65,3.08,3.08,0,0,1,.67-1,2.82,2.82,0,0,1,1-.65,2.85,2.85,0,0,1,1.13-.23,3,3,0,0,1,1.14.21,2.49,2.49,0,0,1,.91.63,3,3,0,0,1,.69,1.07A3.68,3.68,0,0,1,390.75,22.78Zm-1,0a3.38,3.38,0,0,0-.18-1.1,2.14,2.14,0,0,0-.57-.91,1.74,1.74,0,0,0-.56-.36,2,2,0,0,0-.68-.12,1.63,1.63,0,0,0-1.3.55,2.2,2.2,0,0,0-.51.84,3.09,3.09,0,0,0-.18,1.05A3.39,3.39,0,0,0,386,23.9a2.22,2.22,0,0,0,.61.9,1.64,1.64,0,0,0,.54.32,1.83,1.83,0,0,0,.66.11,1.87,1.87,0,0,0,.71-.13,1.74,1.74,0,0,0,.58-.39,2.22,2.22,0,0,0,.52-.85A3,3,0,0,0,389.78,22.82Z"/>
            <path class="cls-2" d="M397.08,25.93h-.54a11.93,11.93,0,0,1-1.79-.1,4.57,4.57,0,0,1-1.27-.4,3,3,0,0,1-1.22-1,2.57,2.57,0,0,1-.42-1.43,2.91,2.91,0,0,1,.47-1.63,3.15,3.15,0,0,1,1.34-1.11,5.45,5.45,0,0,1,1.18-.37,7.42,7.42,0,0,1,1.31-.12l0-2.79h1c0,.08,0,.64,0,1.69s0,2.12,0,3.19c0,.85,0,1.62,0,2.31S397.07,25.44,397.08,25.93Zm-.94-4.25V20.57a6,6,0,0,0-1.14.1,4,4,0,0,0-.92.28,2.08,2.08,0,0,0-1.27,2,1.79,1.79,0,0,0,.32,1.07,2.23,2.23,0,0,0,.8.7,3.38,3.38,0,0,0,.94.34,5.62,5.62,0,0,0,1.1.11h.16v-.9C396.14,23.7,396.14,22.84,396.14,21.68Z"/>
            <path class="cls-2" d="M404.28,25.84h-.92v-.7h0a9.86,9.86,0,0,1-1.06.57,3,3,0,0,1-1.24.29,1.7,1.7,0,0,1-1.31-.5,2,2,0,0,1-.47-1.39c0-.32,0-.7,0-1.15s0-.77,0-1c0-.37,0-.82,0-1.36s0-.84,0-.91h.95c0,.05,0,.34,0,.87s0,.95,0,1.26,0,.63,0,1v.88a1.88,1.88,0,0,0,.25,1,.87.87,0,0,0,.76.33,3,3,0,0,0,1.19-.29,5,5,0,0,0,.94-.51c0-.05,0-.27,0-.67s0-.89,0-1.48c0-.43,0-.94,0-1.53s0-.91,0-1h.95c0,.07,0,.29,0,.68s0,1,0,2v1.37C404.27,24.13,404.27,24.83,404.28,25.84Z"/>
            <path class="cls-2" d="M410.53,25.06l-.07.81h-.33a6.75,6.75,0,0,1-1.46-.15,4.88,4.88,0,0,1-1.22-.44,3,3,0,0,1-1.14-1.06,2.76,2.76,0,0,1-.41-1.47,2.47,2.47,0,0,1,.37-1.33,3.12,3.12,0,0,1,1-1,4.61,4.61,0,0,1,1.31-.54,6.75,6.75,0,0,1,1.57-.18h.25l.05.81h-.19a7.48,7.48,0,0,0-1.15.08,4.86,4.86,0,0,0-.92.27,2,2,0,0,0-.95.76,1.93,1.93,0,0,0-.35,1.12,2.06,2.06,0,0,0,.33,1.19,2.16,2.16,0,0,0,.87.74,3.38,3.38,0,0,0,1,.3,6.69,6.69,0,0,0,1.12.09h.38Z"/>
            <path class="cls-2" d="M416.85,22.56h-4.38a2.83,2.83,0,0,0,.27,1.17,2.18,2.18,0,0,0,.82.89,2.88,2.88,0,0,0,.8.34,4.79,4.79,0,0,0,1.08.11l.63,0,.35,0-.1.8-.33,0-.64,0a5.3,5.3,0,0,1-1.68-.25,3.19,3.19,0,0,1-1.18-.7,3.06,3.06,0,0,1-.67-.94,3,3,0,0,1-.27-1.28,3.56,3.56,0,0,1,.2-1.25,3.33,3.33,0,0,1,.62-1,2.47,2.47,0,0,1,.88-.64,3,3,0,0,1,1.1-.22,2.79,2.79,0,0,1,1,.17,2,2,0,0,1,.76.51,2.5,2.5,0,0,1,.54,1A4.44,4.44,0,0,1,416.85,22.56Zm-.94-.68a2.11,2.11,0,0,0-.51-1.18,1.47,1.47,0,0,0-1.09-.42,1.59,1.59,0,0,0-1.14.43,2.37,2.37,0,0,0-.63,1.17Z"/>
            <path class="cls-2" d="M423.1,25.93h-.54a11.93,11.93,0,0,1-1.79-.1,4.68,4.68,0,0,1-1.27-.4,3,3,0,0,1-1.22-1,2.57,2.57,0,0,1-.42-1.43,2.91,2.91,0,0,1,.47-1.63,3.15,3.15,0,0,1,1.34-1.11,5.45,5.45,0,0,1,1.18-.37,7.42,7.42,0,0,1,1.31-.12l0-2.79h1c0,.08,0,.64,0,1.69s0,2.12,0,3.19c0,.85,0,1.62,0,2.31S423.1,25.44,423.1,25.93Zm-.94-4.25V20.57a6,6,0,0,0-1.14.1,4,4,0,0,0-.92.28,2.12,2.12,0,0,0-1.27,2,1.79,1.79,0,0,0,.32,1.07,2.23,2.23,0,0,0,.8.7,3.5,3.5,0,0,0,.94.34,5.62,5.62,0,0,0,1.1.11h.16s0-.34,0-.9Z"/>
            <path class="cls-2" d="M434.46,23.46a2,2,0,0,1-.31,1.09,2.32,2.32,0,0,1-.9.79,4.3,4.3,0,0,1-1.16.4,7.75,7.75,0,0,1-1.44.12l-1.23,0-.7,0c0-.77,0-1.5,0-2.19s0-1.35,0-2c0-1.19,0-2.13,0-2.82s0-1,0-1.08l.67,0c.38,0,.76,0,1.13,0a6.92,6.92,0,0,1,1.15.08,4.45,4.45,0,0,1,.89.22,2.08,2.08,0,0,1,.86.63,1.6,1.6,0,0,1,.32,1,1.72,1.72,0,0,1-.4,1.11,1.93,1.93,0,0,1-.9.65v.06a2.83,2.83,0,0,1,.81.2,2.14,2.14,0,0,1,.69.46,1.81,1.81,0,0,1,.39.57A2,2,0,0,1,434.46,23.46Zm-1,0a1.2,1.2,0,0,0-.11-.55,1.46,1.46,0,0,0-.32-.47,1.57,1.57,0,0,0-.57-.34,2.45,2.45,0,0,0-.78-.12h-.83l-.09-.73a3.62,3.62,0,0,0,.79-.1,2,2,0,0,0,.61-.29,1.4,1.4,0,0,0,.41-.46,1.24,1.24,0,0,0,.17-.63,1.12,1.12,0,0,0-.18-.64,1.4,1.4,0,0,0-.5-.43,3,3,0,0,0-.65-.19,5.49,5.49,0,0,0-.83-.06h-.83c0,.59,0,1.21,0,1.87v1.44c0,.7,0,1.4,0,2.1s0,1.07,0,1.12h.71a10.46,10.46,0,0,0,1.29-.07,2.86,2.86,0,0,0,1-.3,1.45,1.45,0,0,0,.52-.49A1.36,1.36,0,0,0,433.43,23.49Z"/>
            <path class="cls-2" d="M441.51,20q-1.17,2.59-2.48,5.53l-1.39,3.11-.84-.31,1.25-2.6c0-.08-.28-.67-.75-1.76s-1.06-2.41-1.74-3.94l.91-.39q.66,1.68,1.35,3.33l.73,1.72h0s.26-.57.69-1.61.91-2.17,1.43-3.42Z"/>
        </g>
    </g>
</svg>