<svg xmlns="http://www.w3.org/2000/svg" viewBox="0 0 356.35 171.5"><defs><style>.cls-1{fill:#976a47;}.cls-2{fill:#c9bc9c;}</style></defs><g id="レイヤー_2" data-name="レイヤー 2"><g id="logo"><path class="cls-1" d="M43.25,28.08c-.17.65-1.46,4.73-1.48,4.88a5.19,5.19,0,0,0-.06.8,3.88,3.88,0,0,0,.23,1.2,3.53,3.53,0,0,1,.29,1.23c0,.46-.14,1.12-.8,1.12a.67.67,0,0,1-.76-.74c0-.13.09-.76.11-.89.12-1.14.14-1.27.14-1.41a2.1,2.1,0,0,0-1.05-2.2l0-.11c.78.07,1.42,0,2.87-4,.32-.9.4-1.11,1.16-3.06l.17.05C44,25.27,43.4,27.55,43.25,28.08ZM41.75,27c-.45,0-.57-.27-1-1.33A2.45,2.45,0,0,0,40,24.6l.06-.09a5.23,5.23,0,0,1,1.43.61,1.61,1.61,0,0,1,.79,1.27A.54.54,0,0,1,41.75,27Zm1.64-4.16c-.38,0-.52-.23-1-1a6.5,6.5,0,0,0-1-1.18l.08-.11c.3.06,2.41.47,2.41,1.69C43.9,22.69,43.63,22.84,43.39,22.84Zm5.69,9.1H47.55v2.75l1.5-.51v.13a30.7,30.7,0,0,1-4.35,2.32c-.12.26-.21.53-.38.53s-.19-.09-.29-.23l-.93-1.25a2.14,2.14,0,0,0,.46.06,5.76,5.76,0,0,0,.66-.1c0-.57-.06-3-.06-3.53a11.33,11.33,0,0,0-.22-2.66l1.55.53a.28.28,0,0,1,.23.28c0,.14,0,.2-.66.61,0,.82,0,3.69,0,4.56A14.26,14.26,0,0,0,46.65,35c0-.44,0-2.38,0-2.76V31.16A14.31,14.31,0,0,0,46.44,28l1.56.5c.1,0,.23.07.23.23s-.27.38-.68.57v2.16h.3l.27-.51c.07-.13.13-.27.26-.27a.52.52,0,0,1,.34.21l.5.53c.13.14.17.21.17.31S49.16,31.94,49.08,31.94Zm7.11-4.6H47.32a15.08,15.08,0,0,0-2.43.23l-.46-.84c.49.06,1.12.1,2.32.13,0-.13,0-.74,0-.87,0-1.42,0-1.6,0-1.88a7.51,7.51,0,0,0-.42-2.91l1.74.59c.18.06.29.17.29.31s-.15.22-.29.3-.24.17-.45.32v4.16h2.11c0-1.91,0-4.94-.12-5.81,0-.15-.19-.8-.22-.93l1.9.72c.11,0,.2.08.2.23s-.51.47-.77.61c0,.13,0,1,0,1.57h2.47l.47-.7c.08-.09.17-.25.31-.25a.84.84,0,0,1,.36.19l.79.73c.12.11.19.17.19.28s-.15.21-.28.21H50.76v3.15h3.62L55,26.1c.1-.13.17-.24.29-.24a.59.59,0,0,1,.36.21l.68.78c.14.13.17.19.17.28S56.32,27.34,56.19,27.34Zm.13,9.42H50.57a15,15,0,0,0-2.45.23l-.46-.82c.85.06,1.84.12,2.3.12,0-2.89,0-3.25,0-4.28a8,8,0,0,0-.15-2l1.5.57a.27.27,0,0,1,.19.25c0,.18-.42.45-.63.58,0,.23,0,1.13,0,3.33v1.56h1.41c0-.12-.1-4.92-.1-5.82A7.35,7.35,0,0,0,52,28.08l1.6.55c.21.08.26.15.26.25s-.17.26-.24.32-.44.29-.52.32c0,.4,0,2.15,0,2.51H54.4l.48-.61c.17-.22.21-.22.28-.22a.58.58,0,0,1,.35.21l.57.58c.05.08.19.18.19.29s-.16.21-.31.21H53.07c0,.76,0,3.21,0,3.82h1.37l.57-.76c.08-.12.17-.25.29-.25a.59.59,0,0,1,.36.21l.74.76a.46.46,0,0,1,.17.28C56.61,36.72,56.46,36.76,56.32,36.76Z"/><path class="cls-1" d="M60.43,27.53c-.36,0-.42-.13-.78-.89a2.24,2.24,0,0,0-1.08-1.26l0-.09c2,.13,2.34,1.21,2.34,1.61S60.79,27.53,60.43,27.53Zm1,2.43c-.55,1.92-.63,2.13-.72,2.53a1.63,1.63,0,0,0-.06.49,5.53,5.53,0,0,0,.59,1.83c.38.68.5.87.5,1.23A.81.81,0,0,1,61,37c-.63,0-.86-.61-.86-1.57a4.07,4.07,0,0,0-.36-2.11,1.83,1.83,0,0,0-1.12-1.07l0-.17a.7.7,0,0,0,.3.06c.5,0,.78-.19,1.32-1.39.43-.95.55-1.21,1.46-3.49.83-2.07.93-2.3,1-2.59l.12.06C62.21,27.45,62.1,27.85,61.47,30Zm.27-7.33c-.5,0-.69-.38-1.07-1.24a3.11,3.11,0,0,0-.76-1l.08-.08a8.42,8.42,0,0,1,1.46.44A1.37,1.37,0,0,1,62.31,22C62.31,22.44,62,22.63,61.74,22.63Zm13.58,6.19H71.43l.64.44c.1.06.17.13.17.21,0,.23-.47.26-.79.3-.19.19-1,1.08-1.14,1.27h2.62l.53-.76c.06-.09.17-.24.28-.24a.51.51,0,0,1,.35.19l.76.76c.13.13.19.19.19.3s-.16.21-.29.21H69.37c0,.13,0,1.6,0,1.86h2.66l.54-.64c.13-.17.19-.25.3-.25a.53.53,0,0,1,.32.19l.74.66c.16.16.17.23.17.29s-.15.21-.28.21H69.41c0,.21,0,1.12,0,1.29s.06,1.31.06,1.52a.81.81,0,0,1-.8.82c-.3,0-.34-.16-.34-.61s0-2.58,0-3H66.85a14,14,0,0,0-2.43.23L64,33.23c1.05.07,2.11.13,3.15.13h1.26V31.5H66a14.69,14.69,0,0,0-2.43.21l-.46-.82c1.05.1,2.11.15,3.16.15H70c.08-.17.4-1.17.48-1.42a2.51,2.51,0,0,0,.15-.8H66.81a2,2,0,0,1,1.08,1.54.64.64,0,0,1-.62.65c-.5,0-.54-.46-.61-1a2.46,2.46,0,0,0-.44-1.22h-.4a14.87,14.87,0,0,0-2.43.21l-.46-.82c1,.1,2.11.16,3.16.16h2.28c0-.56,0-1.35,0-1.85H67a15.1,15.1,0,0,0-2.45.23l-.46-.82c1.07.08,2.11.14,3.17.14h1.07a6.91,6.91,0,0,0-.25-1.68l1.48.44c.17.06.27.12.27.23s-.06.17-.51.42a5.16,5.16,0,0,0,0,.59h2.11l.47-.63c.13-.17.19-.25.3-.25a.52.52,0,0,1,.35.19l.6.65c.14.13.17.19.17.28s-.15.21-.28.21H69.34c0,.59,0,1.28,0,1.85h4.08l.67-.76c.13-.14.22-.25.32-.25a.55.55,0,0,1,.34.19l.68.76c.14.15.18.23.18.3S75.47,28.82,75.32,28.82Zm-1.59-7c0,.15.11,2.19.11,2.26,0,.5-.5.59-.69.59-.37,0-.36-.26-.36-.45H65.23c0,.24,0,.62-.64.62-.38,0-.38-.36-.38-.57s.09-1.44.09-1.57c0-.35,0-1.47,0-1.71a6,6,0,0,0-.07-.74l1.48.76h6.89l.33-.42a.44.44,0,0,1,.32-.21,1.15,1.15,0,0,1,.38.17l.61.42c.13.09.23.15.23.28S74.3,21.45,73.73,21.79Zm-6.6-.36H65.25v2.3h1.88Zm2.93,0h-2v2.3h2Zm2.73,0H71v2.3h1.82Z"/><path class="cls-1" d="M82.33,30.72c0,2,0,2.24-1.29,2.6a1.74,1.74,0,0,0-1-1.23l0-.08a4,4,0,0,0,1.08,0c.23-.07.23-.17.25-1-1.41.34-2.47.57-3.17.7-.08.32-.12.42-.27.42s-.26-.25-.3-.32l-.55-1.16a32.35,32.35,0,0,0,4.27-.36,5.92,5.92,0,0,0-.13-1.45l1,.17a7.13,7.13,0,0,0,.94-.85h-2.4a13.84,13.84,0,0,0-2.43.23l-.46-.82c1.43.11,2.82.13,3.16.13h2.47l.47-.3a.52.52,0,0,1,.29-.13.88.88,0,0,1,.3.13l.7.42a.34.34,0,0,1,.21.28c0,.14,0,.25-1,.25-.55.19-1.44.51-2,.72a.13.13,0,0,1,.07.12c0,.11,0,.13-.32.3a3.45,3.45,0,0,0,0,.66c.57-.07,3.1-.41,3.61-.51v.21C85.22,30,84.5,30.21,82.33,30.72Zm4-7.75H80.17a16.11,16.11,0,0,0-2.45.21l-.44-.82c1.42.12,2.79.15,3.15.15h1.1a7.94,7.94,0,0,0-.15-2.37l1.41.44c.19.05.3.09.3.22a.25.25,0,0,1-.17.21c-.06.06-.36.25-.42.29v1.21h2l.57-.57c.21-.2.23-.22.3-.22a.69.69,0,0,1,.34.19l.69.57a.37.37,0,0,1,.19.28C86.59,22.93,86.44,23,86.3,23Zm7.52,13.74H80.49a16.07,16.07,0,0,0-2.45.2l-.44-.81c1.43.11,2.79.15,3.16.15h4.9c0-1.1,0-1.22,0-1.75H83.26a16.06,16.06,0,0,0-2.43.23l-.45-.82c1.42.12,2.81.14,3.15.14H85.6c0-1.33,0-1.47-.11-2.17l1.31.36c.38.11.39.21.39.29s0,.13-.53.51v1h3.1l.47-.73c.08-.11.18-.24.29-.24s.17.05.36.21l.89.72a.38.38,0,0,1,.19.3c0,.17-.17.19-.28.19h-5v1.75h4.9l.84-.76c.23-.21.25-.21.32-.21s.16,0,.35.21l.85.72c.09.08.19.15.19.29S94,36.71,93.82,36.71ZM84.71,24.83c0,.21,0,1.58,0,1.64-.14.26-.63.34-.74.34s-.21-.17-.21-.29H80c0,.33-.55.44-.77.44s-.27-.1-.27-.28A3.5,3.5,0,0,1,79,26.2c0-.46,0-1.2,0-1.65a5,5,0,0,0-.06-.86l1.16.53h3.49l.38-.38c.06,0,.19-.13.27-.13s.09,0,.23.13l.41.33c.14.09.18.13.18.22S84.76,24.77,84.71,24.83Zm-.93-.15H80v1.39h3.8Zm10,7.79c-.25,0-3-.23-3-5.66,0-.4.11-2.17.13-2.55H89a18.46,18.46,0,0,1-.34,3.16c1.16.76,1.27,1.15,1.27,1.48s0,.51-.45.51-.46-.17-.71-.55a5.64,5.64,0,0,0-.41-.53,7.32,7.32,0,0,1-4.15,3.78l0-.12a8.37,8.37,0,0,0,3.45-4.38A7.73,7.73,0,0,0,86,26.45l0-.1a9,9,0,0,1,1.71.61,15,15,0,0,0,.24-2.7,13.78,13.78,0,0,0-1.92.23l-.43-.82c1,.08,1.69.14,2.37.14,0-1.88,0-2.28,0-2.83a2.05,2.05,0,0,0-.22-.95l1.52.41c.15,0,.3.08.3.23s0,.15-.55.57c0,.8,0,1.56,0,2.57h1.46l.69-.71c.13-.15.17-.19.24-.19s.31.17.33.17l.57.46a.44.44,0,0,1,.17.29c0,.15-.06.2-.69.72,0,.66-.13,1.75-.13,2.6,0,2,.59,3.57,1.18,3.57.13,0,.23-.06.63-.63.19-.28.28-.43.64-1l.1,0a11.79,11.79,0,0,0-.36,1.9,2.4,2.4,0,0,0,.36.74.91.91,0,0,1,.11.34C94.28,32.47,93.86,32.47,93.73,32.47Z"/><path class="cls-1" d="M108.51,26.13l-3.59,3.6,3.59,3.58-.76.77-3.59-3.59-3.59,3.58-.76-.77,3.59-3.59-3.58-3.58.74-.74L104.14,29l3.61-3.61Z"/><path class="cls-1" d="M114.59,35.58h-1.5l5.81-13.45h1.33L126,35.58h-1.52L123,32.05h-7Zm2-4.78h5.93l-3-7.15Z"/><path class="cls-1" d="M130.93,27.77h-2.51V33a3.15,3.15,0,0,0,.09.82,1.26,1.26,0,0,0,.28.5,1,1,0,0,0,.43.25,2.19,2.19,0,0,0,.53.07,2.29,2.29,0,0,0,.56-.08,2.69,2.69,0,0,0,.56-.21l.06,1.12a3.49,3.49,0,0,1-.72.2,4,4,0,0,1-.8.07,2.94,2.94,0,0,1-.76-.1,1.76,1.76,0,0,1-.74-.36,1.94,1.94,0,0,1-.56-.72,2.71,2.71,0,0,1-.22-1.2V27.77h-1.85V26.69h1.85V24.18h1.29v2.51h2.51Z"/><path class="cls-1" d="M137.2,27.77h-2.51V33a3.15,3.15,0,0,0,.09.82,1.26,1.26,0,0,0,.28.5,1,1,0,0,0,.43.25,2.19,2.19,0,0,0,.53.07,2.36,2.36,0,0,0,.56-.08,2.92,2.92,0,0,0,.56-.21l.06,1.12a3.49,3.49,0,0,1-.72.2,4,4,0,0,1-.8.07,2.94,2.94,0,0,1-.76-.1,1.86,1.86,0,0,1-.75-.36,2.17,2.17,0,0,1-.56-.72,2.87,2.87,0,0,1-.21-1.2V27.77h-1.85V26.69h1.85V24.18h1.29v2.51h2.51Z"/><path class="cls-1" d="M140.35,23.27a.85.85,0,0,1-.29.66.91.91,0,0,1-1.25,0,.91.91,0,0,1,0-1.31.88.88,0,0,1,1.25,0A.84.84,0,0,1,140.35,23.27Zm-.27,12.31h-1.29V26.69h1.29Z"/><path class="cls-1" d="M148.78,28.72a2.42,2.42,0,0,0-.94-.84,2.77,2.77,0,0,0-1.34-.33,3.5,3.5,0,0,0-1.4.27,3.35,3.35,0,0,0-1.08.76,3.64,3.64,0,0,0-.68,1.14,4.11,4.11,0,0,0-.24,1.42,4,4,0,0,0,.24,1.4,3.31,3.31,0,0,0,.68,1.13,2.91,2.91,0,0,0,1.06.76,3.38,3.38,0,0,0,1.41.28,3,3,0,0,0,1.44-.32,3.15,3.15,0,0,0,1-.84l1,.72a4.26,4.26,0,0,1-1.4,1.12,4.32,4.32,0,0,1-2,.42,5.27,5.27,0,0,1-2-.35,4.25,4.25,0,0,1-1.49-1,4.5,4.5,0,0,1-1-1.48,5.26,5.26,0,0,1,0-3.72,4.55,4.55,0,0,1,1-1.49,4.37,4.37,0,0,1,1.49-1,5.07,5.07,0,0,1,2-.36,4.65,4.65,0,0,1,1.81.39A3.63,3.63,0,0,1,149.79,28Z"/><path class="cls-1" d="M156.17,34.37h6.27v1.21h-7.63V22.13h1.36Z"/><path class="cls-1" d="M169.51,29.83a2.23,2.23,0,0,0-.61-1.72,2.51,2.51,0,0,0-1.76-.56,3.84,3.84,0,0,0-1.49.28,3.6,3.6,0,0,0-1.15.76l-.73-.85a4.19,4.19,0,0,1,1.46-.91,5.45,5.45,0,0,1,2-.37,4.54,4.54,0,0,1,1.35.2,3.44,3.44,0,0,1,1.1.6,2.71,2.71,0,0,1,.74,1,3.49,3.49,0,0,1,.27,1.42v3.9c0,.34,0,.7,0,1.06a8.26,8.26,0,0,0,.12.93h-1.16c0-.21-.07-.45-.1-.7s0-.5,0-.74h0a3.85,3.85,0,0,1-1.38,1.28,4,4,0,0,1-1.85.39,4.48,4.48,0,0,1-1.06-.14,2.87,2.87,0,0,1-1-.47,2.42,2.42,0,0,1-.74-.84,2.81,2.81,0,0,1,.22-2.89,3.19,3.19,0,0,1,1.4-.89,8.17,8.17,0,0,1,2-.38c.76-.06,1.54-.09,2.35-.09Zm-.38,1.31c-.53,0-1.07,0-1.6.06a7.7,7.7,0,0,0-1.47.27,2.82,2.82,0,0,0-1.07.58,1.29,1.29,0,0,0-.42,1,1.59,1.59,0,0,0,.18.79,1.47,1.47,0,0,0,.49.53,2.11,2.11,0,0,0,.67.28,3.2,3.2,0,0,0,.75.09,3,3,0,0,0,1.22-.24,2.53,2.53,0,0,0,.89-.65,2.84,2.84,0,0,0,.55-.94,3.18,3.18,0,0,0,.19-1.12v-.66Z"/><path class="cls-1" d="M174,34.08v1.5h-1.29V21.22H174v7h0a3.69,3.69,0,0,1,1.48-1.32,4.22,4.22,0,0,1,1.88-.45,4.75,4.75,0,0,1,1.89.37,4.22,4.22,0,0,1,1.45,1,4.37,4.37,0,0,1,.93,1.49,5.29,5.29,0,0,1,0,3.68,4.43,4.43,0,0,1-.93,1.48,4.25,4.25,0,0,1-1.45,1,4.75,4.75,0,0,1-1.89.36,4.21,4.21,0,0,1-1.88-.44,3.62,3.62,0,0,1-1.48-1.29Zm6.63-2.94a4.28,4.28,0,0,0-.22-1.4,3.56,3.56,0,0,0-.66-1.14,3.25,3.25,0,0,0-1-.77,3.7,3.7,0,0,0-2.8,0,3.35,3.35,0,0,0-1.08.76,3.71,3.71,0,0,0-.71,1.14,3.9,3.9,0,0,0-.26,1.42,3.84,3.84,0,0,0,.26,1.41,3.34,3.34,0,0,0,.71,1.13,3.18,3.18,0,0,0,1.08.75,3.29,3.29,0,0,0,1.37.28,3.44,3.44,0,0,0,1.43-.28,3,3,0,0,0,1-.76,3.56,3.56,0,0,0,.66-1.14A4.22,4.22,0,0,0,180.64,31.14Z"/><path class="cls-2" d="M37,10.05a2.83,2.83,0,0,1-.65,1.83A3.26,3.26,0,0,1,34.56,13a7.08,7.08,0,0,1-1,.18,11.87,11.87,0,0,1-1.24.05v2.95H31.15c0-.28,0-.8,0-1.55s0-1.92,0-3.5c0-.5,0-1.11,0-1.84s0-1.54,0-2.43h1.06a10.81,10.81,0,0,1,2,.16,3.72,3.72,0,0,1,1.42.52,2.59,2.59,0,0,1,1,1A3.21,3.21,0,0,1,37,10.05Zm-1.18,0a2.16,2.16,0,0,0-.33-1.22,2.09,2.09,0,0,0-1-.8,3,3,0,0,0-.9-.23c-.33,0-.66,0-1,0H32.3s0,.4,0,1,0,1.16,0,1.53,0,.75,0,1.22v.8h.28a8.74,8.74,0,0,0,1-.06,3.11,3.11,0,0,0,.9-.23,2.4,2.4,0,0,0,1-.77A2.13,2.13,0,0,0,35.79,10.05Z"/><path class="cls-2" d="M42.92,10a10.44,10.44,0,0,0-1.17.38c-.53.19-1.13.45-1.82.78,0,.05,0,.28,0,.7V13c0,.54,0,1.19,0,1.94s0,1.17,0,1.26h-1.1c0-.08,0-.34,0-.78s0-1.2,0-2.26c0-.44,0-1,0-1.81s0-1.51,0-2.19h1.08v1h0a14.87,14.87,0,0,1,1.55-.77A9.42,9.42,0,0,1,42.71,9Z"/><path class="cls-2" d="M50.52,12.66a4.25,4.25,0,0,1-.29,1.54,3.38,3.38,0,0,1-1.85,1.93,3.38,3.38,0,0,1-1.27.23,3.47,3.47,0,0,1-1.25-.23,3.07,3.07,0,0,1-1-.66A3.32,3.32,0,0,1,44,14.21a4.33,4.33,0,0,1-.29-1.57A4.13,4.13,0,0,1,44,11.17,3.44,3.44,0,0,1,44.72,10a3.35,3.35,0,0,1,1.09-.74A3.23,3.23,0,0,1,47.12,9a3.43,3.43,0,0,1,1.31.24,3.23,3.23,0,0,1,1,.72,3.61,3.61,0,0,1,.78,1.24A4.31,4.31,0,0,1,50.52,12.66Zm-1.11,0a3.69,3.69,0,0,0-.22-1.27,2.59,2.59,0,0,0-.65-1,1.89,1.89,0,0,0-.65-.41,2.31,2.31,0,0,0-1.61,0,2,2,0,0,0-.66.48,2.69,2.69,0,0,0-.59,1,3.54,3.54,0,0,0-.21,1.21A3.71,3.71,0,0,0,45,14a2.5,2.5,0,0,0,.69,1,1.83,1.83,0,0,0,.63.38,2.36,2.36,0,0,0,.75.12,2.21,2.21,0,0,0,.82-.15,2,2,0,0,0,.66-.44,2.67,2.67,0,0,0,.61-1A3.44,3.44,0,0,0,49.41,12.7Z"/><path class="cls-2" d="M57.79,16.28h-.62a13.68,13.68,0,0,1-2.06-.12,5.18,5.18,0,0,1-1.45-.45,3.39,3.39,0,0,1-1.41-1.18,2.94,2.94,0,0,1-.48-1.64A3.34,3.34,0,0,1,52.31,11a3.54,3.54,0,0,1,1.54-1.27,5.29,5.29,0,0,1,1.36-.42,7.78,7.78,0,0,1,1.5-.15l0-3.2h1.1c0,.09,0,.74,0,1.94s0,2.43,0,3.67c0,1,0,1.86,0,2.65S57.79,15.71,57.79,16.28Zm-1.08-4.89V10.11a6.86,6.86,0,0,0-1.31.12,4.35,4.35,0,0,0-1,.32,2.37,2.37,0,0,0-1.08.91,2.48,2.48,0,0,0-.38,1.39,2.08,2.08,0,0,0,.36,1.23,2.63,2.63,0,0,0,.92.81,4.31,4.31,0,0,0,1.08.39,6.59,6.59,0,0,0,1.27.12h.18s0-.38,0-1Z"/><path class="cls-2" d="M66.07,16.18H65v-.81h0a9.48,9.48,0,0,1-1.22.66,3.44,3.44,0,0,1-1.43.34,2,2,0,0,1-1.5-.57,2.25,2.25,0,0,1-.54-1.6c0-.37,0-.82,0-1.33s0-.88,0-1.12c0-.42,0-.94,0-1.56s0-1,0-1h1.09c0,.06,0,.39,0,1s0,1.09,0,1.45v1.2c0,.48,0,.81,0,1A2.13,2.13,0,0,0,61.67,15a1,1,0,0,0,.87.38,3.33,3.33,0,0,0,1.36-.33A6.6,6.6,0,0,0,65,14.47c0-.05,0-.31,0-.77s0-1,0-1.71c0-.48,0-1.07,0-1.74s0-1.05,0-1.11h1.1c0,.07,0,.33,0,.78s0,1.2,0,2.26c0,.6,0,1.13,0,1.58S66.06,15,66.07,16.18Z"/><path class="cls-2" d="M73.26,15.27l-.09.93h-.38A7.47,7.47,0,0,1,71.11,16a5.19,5.19,0,0,1-1.39-.5,3.46,3.46,0,0,1-1.32-1.22,3.16,3.16,0,0,1-.47-1.69,2.81,2.81,0,0,1,.43-1.53,3.55,3.55,0,0,1,1.13-1.15A4.67,4.67,0,0,1,71,9.33a7.16,7.16,0,0,1,1.8-.22h.29l0,.94h-.21a8.2,8.2,0,0,0-1.32.09,4.79,4.79,0,0,0-1.06.31,2.39,2.39,0,0,0-1.1.88,2.23,2.23,0,0,0-.4,1.28A2.35,2.35,0,0,0,69.42,14a2.53,2.53,0,0,0,1,.86,4.57,4.57,0,0,0,1.1.34,7.71,7.71,0,0,0,1.3.1h.44Z"/><path class="cls-2" d="M80.51,12.4h-5a3.05,3.05,0,0,0,.32,1.35,2.48,2.48,0,0,0,.94,1,3.13,3.13,0,0,0,.91.39,5.55,5.55,0,0,0,1.24.13c.27,0,.51,0,.73,0l.41,0-.13.92-.37,0h-.74a5.91,5.91,0,0,1-1.93-.28,3.86,3.86,0,0,1-1.36-.8A3.58,3.58,0,0,1,74.74,14a3.22,3.22,0,0,1-.32-1.46,4.35,4.35,0,0,1,.23-1.44,4.17,4.17,0,0,1,.71-1.19,2.89,2.89,0,0,1,1-.73A3.28,3.28,0,0,1,77.65,9a3.09,3.09,0,0,1,1.14.2,2.28,2.28,0,0,1,.87.59,2.84,2.84,0,0,1,.63,1.1A5.05,5.05,0,0,1,80.51,12.4Zm-1.08-.78a2.28,2.28,0,0,0-.58-1.35,1.67,1.67,0,0,0-1.26-.49,1.81,1.81,0,0,0-1.3.49,2.59,2.59,0,0,0-.72,1.35Z"/><path class="cls-2" d="M87.7,16.28h-.62A13.68,13.68,0,0,1,85,16.17a5.08,5.08,0,0,1-1.45-.45,3.39,3.39,0,0,1-1.41-1.18,2.94,2.94,0,0,1-.48-1.64A3.34,3.34,0,0,1,82.22,11a3.49,3.49,0,0,1,1.54-1.27,5.29,5.29,0,0,1,1.36-.42,7.78,7.78,0,0,1,1.5-.15l0-3.2h1.1c0,.09,0,.74,0,1.94s0,2.43,0,3.67c0,1,0,1.86,0,2.65S87.69,15.71,87.7,16.28Zm-1.08-4.89V10.11a6.86,6.86,0,0,0-1.31.12,4.35,4.35,0,0,0-1,.32,2.37,2.37,0,0,0-1.08.91,2.49,2.49,0,0,0-.39,1.39,2.08,2.08,0,0,0,.37,1.23,2.63,2.63,0,0,0,.92.81,4.31,4.31,0,0,0,1.08.39,6.52,6.52,0,0,0,1.27.12h.18v-1C86.62,13.71,86.62,12.72,86.62,11.39Z"/><path class="cls-2" d="M100.76,13.43a2.26,2.26,0,0,1-.36,1.26,2.66,2.66,0,0,1-1,.91,4.63,4.63,0,0,1-1.33.45,8.14,8.14,0,0,1-1.65.15l-1.41,0-.81,0c0-.89,0-1.73,0-2.52s0-1.55,0-2.27c0-1.36,0-2.44,0-3.23s0-1.21,0-1.25l.76,0,1.31,0a7.86,7.86,0,0,1,1.32.1,4.2,4.2,0,0,1,1,.26,2.17,2.17,0,0,1,1,.72A1.82,1.82,0,0,1,99.92,9a2,2,0,0,1-.45,1.27,2.26,2.26,0,0,1-1,.75v.07a3.34,3.34,0,0,1,.93.23,2.36,2.36,0,0,1,.79.52,2.25,2.25,0,0,1,.46.66A2.37,2.37,0,0,1,100.76,13.43Zm-1.18,0a1.62,1.62,0,0,0-.13-.64,1.84,1.84,0,0,0-.38-.54,1.74,1.74,0,0,0-.65-.38,2.57,2.57,0,0,0-.9-.15h-.94l-.11-.84a3.92,3.92,0,0,0,.9-.12,2.14,2.14,0,0,0,.7-.32,1.62,1.62,0,0,0,.48-.53,1.4,1.4,0,0,0,.19-.73,1.26,1.26,0,0,0-.21-.73A1.54,1.54,0,0,0,98,8a3.08,3.08,0,0,0-.75-.21,5.61,5.61,0,0,0-.95-.08h-1c0,.68,0,1.4,0,2.16s0,1.31,0,1.66c0,.79,0,1.6,0,2.4s0,1.23,0,1.29l.38,0h.44a11.47,11.47,0,0,0,1.49-.09,3.11,3.11,0,0,0,1.15-.34,1.57,1.57,0,0,0,.6-.57A1.45,1.45,0,0,0,99.58,13.47Z"/><path class="cls-2" d="M108.86,9.42c-.9,2-1.85,4.11-2.85,6.36l-1.6,3.58-1-.36,1.44-3L104,14c-.55-1.26-1.21-2.76-2-4.52l1-.45c.51,1.29,1,2.56,1.56,3.82l.84,2h0c0-.05.29-.66.79-1.85s1-2.5,1.65-3.93Z"/><path class="cls-1" d="M95,70.56l-11.12-.08q-9.8-.09-29.63-.09-.16,17-.25,25.84t-.08,24q0,14.63.12,29.7T54.29,170H40.59q.16-5,.29-20.35T41,119.58v-23q0-8.5-.25-26.21-17.68-.08-28.68,0T0,70.56V59.1q8.55,0,20.79.09t26.11.08q20.09,0,33.58-.08L95,59.1Z"/><path class="cls-1" d="M209.26,170H195.57q.08-5,.2-18.38t.13-33.41l-14.78,0q-13.53,0-20.33,0-8.22,0-19.72,0l-12.49,0q0,23.07.12,34.94t.21,16.85h-13.7q.09-5,.25-17.68t.17-42.91q0-9.14-.12-22.25t-.3-28.3h13.7q0,12.61-.16,24.77t-.17,23.12l10.83,0q9.84,0,21.46,0,9,0,21.58,0l13.45,0q0-10.95-.17-23.07t-.16-24.82h13.69q-.16,12.52-.29,29t-.12,26.81q0,24.4.16,37.39T209.26,170Z"/><path class="cls-1" d="M356.35,138.71a27.59,27.59,0,0,1-4,15,31.07,31.07,0,0,1-10.85,10.42,50.71,50.71,0,0,1-14.29,5.52,79.59,79.59,0,0,1-17.87,1.87q-5.32,0-11-.33c-3.8-.23-6-.36-6.61-.42L291,158.8q1.16.16,6.47.62t12.53.46a71.71,71.71,0,0,0,11.38-1.17,40.57,40.57,0,0,0,10.7-3,21,21,0,0,0,7.52-5.81,13.79,13.79,0,0,0,2.61-8.64,16.43,16.43,0,0,0-2.61-9.42Q337,128,331,124.43q-3.9-2.33-10.12-5.23a109.21,109.21,0,0,1-11.21-6q-8.47-5.15-12.08-11.25a26.12,26.12,0,0,1-3.61-13.57,25.7,25.7,0,0,1,3.28-13.24,32.79,32.79,0,0,1,8.52-9.59,36.93,36.93,0,0,1,13-6,68.07,68.07,0,0,1,17.09-2q5.15,0,10.43.29c3.52.2,5.52.32,6,.37l1.17,12-6.06-.58q-5.31-.49-13.12-.5a46.62,46.62,0,0,0-9.58,1,29.13,29.13,0,0,0-8.68,3.2,17.16,17.16,0,0,0-5.64,5.31,13.78,13.78,0,0,0-2.33,8,14.24,14.24,0,0,0,2.45,7.84q2.44,3.78,9.17,7.76,3.4,2.09,9,4.77t11,5.86a37.19,37.19,0,0,1,12.49,11.24A25.77,25.77,0,0,1,356.35,138.71Z"/><path class="cls-2" d="M259.81,170h-13.7q.09-5.59.25-20t.17-41.29q0-10.65-.09-27.93t-.33-35.88h13.7q-.17,13.37-.29,31.07t-.13,28.91q0,28.39.17,44T259.81,170Z"/><path class="cls-2" d="M253.82,5.73V32"/><path class="cls-2" d="M258.82,5.73,255.22,32a1.41,1.41,0,0,1-2.8,0l-3.6-26.26a5,5,0,0,1,10-1.37A5.23,5.23,0,0,1,258.82,5.73Z"/><path class="cls-2" d="M276.5,16.18,263,34.28"/><path class="cls-2" d="M280.51,19.16l-16.36,16a1.42,1.42,0,0,1-2.24-1.67l10.58-20.26a5.07,5.07,0,0,1,9,4.69A5.11,5.11,0,0,1,280.51,19.16Z"/><path class="cls-2" d="M229.41,16.18l15.2,18.1"/><path class="cls-2" d="M233.24,13l12.44,20.42a1.41,1.41,0,0,1-2.14,1.8l-18-15.79a5.06,5.06,0,0,1,6.68-7.6A5.13,5.13,0,0,1,233.24,13Z"/></g></g></svg>